<?xml version="1.0" encoding="utf-8"?>
<!-- Generator: Adobe Illustrator 14.0.0, SVG Export Plug-In  -->
<!DOCTYPE svg PUBLIC "-//W3C//DTD SVG 1.1//EN" "http://www.w3.org/Graphics/SVG/1.1/DTD/svg11.dtd" [
	<!ENTITY ns_flows "http://ns.adobe.com/Flows/1.0/">
]>
<svg version="1.1"
	 xmlns="http://www.w3.org/2000/svg" xmlns:xlink="http://www.w3.org/1999/xlink" xmlns:a="http://ns.adobe.com/AdobeSVGViewerExtensions/3.0/"
	 x="0px" y="0px" width="100px" height="100px" viewBox="-7.042 -6.536 100 100" enable-background="new -7.042 -6.536 100 100"
	 xml:space="preserve">
<defs>
</defs>
<path fill="#231F20" d="M87.35,78.579c0,4.844-3.928,8.771-8.771,8.771H8.771C3.927,87.351,0,83.423,0,78.579V8.771
	C0,3.928,3.927,0,8.771,0h69.807c4.844,0,8.771,3.928,8.771,8.771V78.579L87.35,78.579z"/>
<path fill="#FFFFFF" d="M78.442,14.393c0,0.355-3.146,0.645-7.026,0.645H15.502c-3.879,0-7.026-0.289-7.026-0.645V9.253
	c0-0.356,3.146-0.646,7.026-0.646h55.914c3.88,0,7.026,0.29,7.026,0.646V14.393z"/>
<circle fill="#FFFFFF" cx="42.95" cy="34.771" r="11.445"/>
<path fill="#FFFFFF" d="M24.506,72.172h35.903v-4.105l8.648-9.988c0.122-0.142,0.209-0.303,0.266-0.475
	c0.254-0.185,0.486-0.396,0.697-0.64c1.049-1.21,1.276-2.886,0.775-4.479V32.928c0-0.171-0.039-0.334-0.108-0.486
	c0.071-0.278,0.108-0.564,0.108-0.858c0-2.431-2.558-4.401-5.712-4.401c-3.156,0-5.714,1.97-5.714,4.401
	c0,0.293,0.038,0.581,0.109,0.858c-0.069,0.152-0.109,0.315-0.109,0.486v18.88l-1.336,1.543c-1.324-1.231-3.094-1.99-5.046-1.99
	h-21.06c-1.805,0-3.458,0.646-4.745,1.717l-0.39-0.45v-18.88c0-0.171-0.04-0.333-0.109-0.486c0.07-0.278,0.109-0.565,0.109-0.858
	c0-2.431-2.558-4.401-5.714-4.401c-3.155,0-5.713,1.97-5.713,4.401c0,0.293,0.038,0.58,0.109,0.858
	c-0.069,0.152-0.109,0.316-0.109,0.486v19.557c-0.501,1.593-0.272,3.27,0.775,4.479c0.21,0.242,0.444,0.455,0.698,0.639
	c0.057,0.173,0.144,0.334,0.266,0.476l7.4,8.548L24.506,72.172L24.506,72.172z"/>
<path fill="#FFFFFF" d="M14.129,77.777c0,0.618-0.501,1.12-1.12,1.12l0,0c-0.619,0-1.12-0.502-1.12-1.12v-66.77
	c0-0.619,0.501-1.12,1.12-1.12l0,0c0.619,0,1.12,0.501,1.12,1.12V77.777z"/>
<path fill="#FFFFFF" d="M22.448,77.777c0,0.618-0.501,1.12-1.12,1.12l0,0c-0.619,0-1.12-0.502-1.12-1.12v-66.77
	c0-0.619,0.501-1.12,1.12-1.12l0,0c0.619,0,1.12,0.501,1.12,1.12V77.777z"/>
<path fill="#231F20" d="M22.448,63.875c0,0.327-0.501,0.593-1.12,0.593l0,0c-0.619,0-1.12-0.266-1.12-0.593V28.484
	c0-0.328,0.501-0.594,1.12-0.594l0,0c0.619,0,1.12,0.266,1.12,0.594V63.875z"/>
<path fill="#FFFFFF" d="M31.087,77.777c0,0.618-0.501,1.12-1.12,1.12l0,0c-0.619,0-1.12-0.502-1.12-1.12v-66.77
	c0-0.619,0.501-1.12,1.12-1.12l0,0c0.619,0,1.12,0.501,1.12,1.12V77.777z"/>
<path fill="#FFFFFF" d="M39.406,77.777c0,0.618-0.501,1.12-1.12,1.12l0,0c-0.619,0-1.12-0.502-1.12-1.12v-66.77
	c0-0.619,0.501-1.12,1.12-1.12l0,0c0.619,0,1.12,0.501,1.12,1.12V77.777z"/>
<path fill="#FFFFFF" d="M49.325,77.777c0,0.618-0.501,1.12-1.12,1.12l0,0c-0.618,0-1.119-0.502-1.119-1.12v-66.77
	c0-0.619,0.501-1.12,1.119-1.12l0,0c0.619,0,1.12,0.501,1.12,1.12V77.777z"/>
<path fill="#FFFFFF" d="M57.644,77.777c0,0.618-0.501,1.12-1.12,1.12l0,0c-0.618,0-1.119-0.502-1.119-1.12v-66.77
	c0-0.619,0.5-1.12,1.119-1.12l0,0c0.619,0,1.12,0.501,1.12,1.12V77.777z"/>
<path fill="#FFFFFF" d="M66.283,77.777c0,0.618-0.501,1.12-1.119,1.12l0,0c-0.619,0-1.12-0.502-1.12-1.12v-66.77
	c0-0.619,0.501-1.12,1.12-1.12l0,0c0.618,0,1.119,0.501,1.119,1.12V77.777z"/>
<path fill="#FFFFFF" d="M74.602,77.777c0,0.618-0.501,1.12-1.12,1.12l0,0c-0.618,0-1.12-0.502-1.12-1.12v-66.77
	c0-0.619,0.501-1.12,1.12-1.12l0,0c0.619,0,1.12,0.501,1.12,1.12V77.777z"/>
<path fill="#231F20" d="M31.087,75.191c0,0.217-0.501,0.393-1.12,0.393l0,0c-0.619,0-1.12-0.176-1.12-0.393V51.754
	c0-0.217,0.501-0.393,1.12-0.393l0,0c0.619,0,1.12,0.176,1.12,0.393V75.191z"/>
<path fill="#231F20" d="M39.353,75.191c0,0.217-0.501,0.393-1.12,0.393l0,0c-0.619,0-1.12-0.176-1.12-0.393V51.754
	c0-0.217,0.501-0.393,1.12-0.393l0,0c0.619,0,1.12,0.176,1.12,0.393V75.191z"/>
<path fill="#231F20" d="M49.325,75.191c0,0.217-0.501,0.393-1.12,0.393l0,0c-0.618,0-1.119-0.176-1.119-0.393V51.754
	c0-0.217,0.501-0.393,1.119-0.393l0,0c0.619,0,1.12,0.176,1.12,0.393V75.191z"/>
<path fill="#231F20" d="M49.325,45.865c0,0.194-0.501,0.353-1.12,0.353l0,0c-0.618,0-1.119-0.158-1.119-0.353V24.836
	c0-0.195,0.501-0.353,1.119-0.353l0,0c0.619,0,1.12,0.158,1.12,0.353V45.865z"/>
<path fill="#231F20" d="M39.406,45.865c0,0.194-0.501,0.353-1.12,0.353l0,0c-0.619,0-1.12-0.158-1.12-0.353V24.836
	c0-0.195,0.501-0.353,1.12-0.353l0,0c0.619,0,1.12,0.158,1.12,0.353V45.865z"/>
<path fill="#231F20" d="M57.484,75.831c0,0.218-0.501,0.394-1.12,0.394l0,0c-0.618,0-1.12-0.176-1.12-0.394V52.395
	c0-0.218,0.502-0.393,1.12-0.393l0,0c0.619,0,1.12,0.175,1.12,0.393V75.831z"/>
<path fill="#231F20" d="M66.302,75.43c0,0.439-0.502,0.796-1.12,0.796l0,0c-0.619,0-1.12-0.356-1.12-0.796V27.979
	c0-0.439,0.501-0.796,1.12-0.796l0,0c0.618,0,1.12,0.356,1.12,0.796V75.43z"/>
<path fill="#FFFFFF" d="M8.477,78.229v-5.139c0-0.356,3.146-0.646,7.026-0.646h55.915c3.878,0,7.024,0.289,7.024,0.646v5.139
	c0,0.356-3.146,0.646-7.024,0.646H15.502"/>
</svg>
