<?xml version="1.0" encoding="utf-8"?>
<!-- Generator: Adobe Illustrator 14.0.0, SVG Export Plug-In  -->
<!DOCTYPE svg PUBLIC "-//W3C//DTD SVG 1.1//EN" "http://www.w3.org/Graphics/SVG/1.1/DTD/svg11.dtd" [
	<!ENTITY ns_flows "http://ns.adobe.com/Flows/1.0/">
]>
<svg version="1.1"
	 xmlns="http://www.w3.org/2000/svg" xmlns:xlink="http://www.w3.org/1999/xlink" xmlns:a="http://ns.adobe.com/AdobeSVGViewerExtensions/3.0/"
	 x="0px" y="0px" width="792px" height="612px" viewBox="-112.133 -165.702 792 612"
	 enable-background="new -112.133 -165.702 792 612" xml:space="preserve">
<defs>
</defs>
<path fill="#010101" d="M580.887,117.77l0.048-0.018L472.009,0h-47.961h-32.697C379.81,0,370.44,9.356,370.44,20.912
	c0,11.556,9.37,20.913,20.911,20.913h66.318l86.587,183.999c30.318-5.84,53.226-32.481,53.226-64.503
	C597.482,144.591,591.181,129.366,580.887,117.77z"/>
<path fill="#010101" d="M446.292,59.749h-54.94c-21.437,0-38.837-17.376-38.837-38.837c0-7.708,2.276-14.873,6.138-20.912H185.225
	v227.043h155.34c0-28.042,22.744-50.786,50.786-50.786s50.786,22.744,50.786,50.786h82.877L446.292,59.749z"/>
<path fill="#010101" d="M391.351,188.207c-21.448,0-38.837,17.388-38.837,38.837s17.389,38.837,38.837,38.837
	c21.449,0,38.838-17.388,38.838-38.837S412.8,188.207,391.351,188.207z M391.351,247.956c-11.553,0-20.911-9.359-20.911-20.912
	s9.358-20.911,20.911-20.911c11.554,0,20.912,9.358,20.912,20.911S402.905,247.956,391.351,247.956z"/>
<path fill="#010101" d="M98.579,188.207c-21.448,0-38.836,17.388-38.836,38.837S77.13,265.88,98.579,265.88
	c21.449,0,38.836-17.388,38.836-38.837S120.027,188.207,98.579,188.207z M98.579,247.956c-11.55,0-20.912-9.359-20.912-20.912
	s9.362-20.911,20.912-20.911c11.551,0,20.912,9.358,20.912,20.911S110.129,247.956,98.579,247.956z"/>
<path fill="#010101" d="M53.773,53.774l-41.824,71.697v71.698H0v29.874h47.793c0-28.054,22.735-50.786,50.786-50.786
	s50.787,22.732,50.787,50.786H167.3V53.774H53.773z M98.579,119.496H33.95l27.303-47.792h37.325V119.496z"/>
</svg>
