<?xml version="1.0" encoding="utf-8"?>
<!-- Generator: Adobe Illustrator 14.0.0, SVG Export Plug-In . SVG Version: 6.00 Build 43363)  -->
<!DOCTYPE svg PUBLIC "-//W3C//DTD SVG 1.0//EN" "http://www.w3.org/TR/2001/REC-SVG-20010904/DTD/svg10.dtd">
<svg version="1.0" id="Layer_1" xmlns="http://www.w3.org/2000/svg" xmlns:xlink="http://www.w3.org/1999/xlink" x="0px" y="0px"
	 width="95.45px" height="100px" viewBox="0 0 95.45 100" enable-background="new 0 0 95.45 100" xml:space="preserve">
<path d="M3.337,43.461c-0.215,1.638-3.236,4.061-3.332,5.712c-0.174,3,3.879,8.87,6.664,9.997
	c4.422,1.788,26.895,0.951,26.895,0.951c2.197,3.838-3.914,13.323-5.594,17.414c-2.464,6.001-2.048,13.959,1.072,18.05
	c3.81,4.996,10.805,5.329,10.948,3.094c1.042-16.214,4.146-20.712,8.304-23.92c2.495-1.924,4.679-3.609,5.831-6.545
	c7.081-18.039,12.797-21.745,15.532-22.373h1.75h0.002h0.517V4.904L50.463,1.096c0,0-26.067-2.465-34.273,0
	c-2.584,0.777-7.042,4.654-8.092,7.14c-0.604,1.428,0.232,4.809-0.476,6.188c-1.05,2.043-5.48,4.6-5.474,7.378
	c0.003,1.98,2.309,5.405,2.142,7.378c-0.167,1.975-4.288,4.684-4.284,6.665C0.009,37.924,3.607,41.401,3.337,43.461z"/>
<path d="M75.259,6.518c0-2.354,2.005-4.264,4.478-4.264h11.236c2.474,0,4.478,1.91,4.478,4.264V43.83
	c0,2.356-2.004,4.266-4.478,4.266H79.736c-2.473,0-4.478-1.91-4.478-4.266V6.518z"/>
</svg>
