<?xml version="1.0" encoding="utf-8"?>
<!-- Generator: Adobe Illustrator 14.0.0, SVG Export Plug-In . SVG Version: 6.00 Build 43363)  -->
<!DOCTYPE svg PUBLIC "-//W3C//DTD SVG 1.0//EN" "http://www.w3.org/TR/2001/REC-SVG-20010904/DTD/svg10.dtd">
<svg version="1.0" id="Layer_1" xmlns="http://www.w3.org/2000/svg" xmlns:xlink="http://www.w3.org/1999/xlink" x="0px" y="0px"
	 width="95.018px" height="100px" viewBox="0 0 95.018 100" enable-background="new 0 0 95.018 100" xml:space="preserve">
<path id="path6956" d="M54.03,6.466c0,3.569-2.813,6.465-6.281,6.465s-6.281-2.896-6.281-6.465C41.468,2.896,44.282,0,47.75,0
	S54.03,2.896,54.03,6.466z"/>
<path d="M76.853,65.509c-0.078,0-0.156-0.001-0.234,0c-2.791,0.034-5.431,0.666-7.783,1.768l-3.051-4.747l5.562-19.996
	L54.928,11.257l-7.455,3.414L31.442,43.705c-2.797,0.587-3.355,1.63-4.234,3.723c-0.114,0.272-2.539,8.416-5.502,18.412
	c-1.146-0.216-2.329-0.331-3.541-0.331c-0.079,0-0.156-0.001-0.234,0C8.012,65.629,0,73.31,0,82.754C0,92.274,8.138,100,18.165,100
	c10.027,0,18.165-7.726,18.165-17.246c0-7.431-4.959-13.768-11.904-16.191c0.385-1.299,0.769-2.592,1.143-3.854l21.128,17.69
	c-0.372,0.71-0.586,1.508-0.586,2.354c0,2.931,2.503,5.307,5.589,5.307c2.573,0,4.734-1.652,5.385-3.899h1.668
	c0.102,1.203,0.339,2.371,0.689,3.492L52.37,92.29l0.242,2.209l9.754-1.351c3.316,4.16,8.57,6.852,14.486,6.852
	c10.026,0,18.165-7.726,18.165-17.246C95.018,73.235,86.879,65.509,76.853,65.509z M33.535,82.754
	c0,8.056-6.886,14.593-15.37,14.593S2.794,90.81,2.794,82.754c0-7.991,6.778-14.49,15.171-14.592c0.066-0.001,0.133,0,0.199,0
	c0.95,0,1.878,0.086,2.78,0.243c-1.139,3.846-2.333,7.879-3.489,11.785c-1.2,0.298-2.086,1.331-2.086,2.563
	c0,1.466,1.251,2.653,2.795,2.653s2.794-1.188,2.794-2.653c0-0.715-0.299-1.362-0.784-1.84c0.955-3.226,2.206-7.451,3.49-11.785
	C29.435,71.232,33.535,76.54,33.535,82.754z M29.818,48.477c0.688-1.638,0.732-1.727,2.245-2.03c0.607-0.032,4.34-0.012,6.871,0.013
	l0.028-2.812c-0.421-0.004-0.816-0.008-1.19-0.011l10.113-14.795l7.383,11.67L38.945,53.886H28.192
	C29.088,50.879,29.707,48.817,29.818,48.477z M57.897,51.229l-0.447,2.657h-3.748L57.897,51.229z M26.442,59.771
	c0.317-1.069,0.623-2.099,0.913-3.072h11.338l6.92,14.802l-2.362,2.345L26.442,59.771z M52,77.463c-0.1-0.005-0.198-0.015-0.3-0.015
	c-1.143,0-2.203,0.327-3.089,0.886l-3.506-2.937l7.702-0.332L52,77.463z M47.35,57.908l1.91-1.21h7.719l-2.007,11.946l-1.188,3.527
	L47.35,57.908z M57.085,81.348c-0.372-1.284-1.236-2.372-2.392-3.069l1.546-4.586l1.922,7.655H57.085z M64.161,68.358l0.612-2.198
	l1.61,2.506c-0.688,0.461-1.335,0.971-1.947,1.517L64.161,68.358z M67.844,70.937l6.667,10.372
	c-0.009,0.013-0.017,0.026-0.025,0.039h-8.368l-1.176-7.809C65.786,72.558,66.762,71.682,67.844,70.937z M76.853,97.347
	c-4.438,0-8.435-1.79-11.24-4.647l2.633-0.364l-1.252-5.167l-0.453-3.007h7.945c0.494,0.748,1.368,1.246,2.367,1.246
	c1.543,0,2.794-1.188,2.794-2.653c0-1.39-1.127-2.528-2.562-2.642L70.3,69.555c1.932-0.866,4.082-1.365,6.354-1.393
	c0.066-0.001,0.133,0,0.199,0c8.484,0,15.37,6.537,15.37,14.592C92.223,90.81,85.337,97.347,76.853,97.347z"/>
</svg>
