<?xml version="1.0" encoding="utf-8"?>
<!-- Generator: Adobe Illustrator 14.0.0, SVG Export Plug-In . SVG Version: 6.00 Build 43363)  -->
<!DOCTYPE svg PUBLIC "-//W3C//DTD SVG 1.0//EN" "http://www.w3.org/TR/2001/REC-SVG-20010904/DTD/svg10.dtd">
<svg version="1.0" id="Layer_1" xmlns="http://www.w3.org/2000/svg" xmlns:xlink="http://www.w3.org/1999/xlink" x="0px" y="0px"
	 width="77.174px" height="100px" viewBox="0 0 77.174 100" enable-background="new 0 0 77.174 100" xml:space="preserve">
<path d="M75.266,11.247c2.544-2.544,2.544-6.794,0-9.339c-2.544-2.543-6.794-2.543-9.338,0C58.616,9.219,51.307,16.53,43.995,23.84
	c-0.022,0.023-0.039,0.047-0.062,0.069c1.2-1.829,1.901-4.015,1.901-6.365c0-6.417-5.202-11.618-11.619-11.618
	c-6.415,0-11.617,5.201-11.617,11.618c0,3.897,1.922,7.344,4.867,9.451c-1.335,0.208-2.615,0.811-3.626,1.82
	C16.53,36.126,9.218,43.437,1.907,50.749c-2.543,2.544-2.543,6.794,0,9.338c2.544,2.544,6.795,2.544,9.339,0
	c4.207-4.208,8.413-8.415,12.622-12.623c0,3.333,0,6.666,0,9.997c0,2.125,0.526,4.144,1.448,5.937
	c0.316,0.873,0.812,1.69,1.502,2.381c0.144,0.144,0.289,0.287,0.432,0.431c0.338,0.38,0.698,0.738,1.076,1.076
	c10.06,10.061,20.12,20.122,30.182,30.182c0.207,0.208,0.417,0.417,0.624,0.625c2.544,2.544,6.794,2.544,9.338,0
	c2.546-2.544,2.546-6.794,0-9.34c-7.347-7.347-14.694-14.694-22.041-22.041l0,0l-0.248-0.249l2.115-2.117l0,0
	c3.699-3.697,7.395-7.393,11.091-11.09c0.474,6.975,0.947,13.949,1.419,20.924c0.244,3.59,2.82,6.604,6.604,6.604
	c3.415,0,6.847-3.009,6.604-6.604c-0.81-11.951-1.619-23.903-2.432-35.854c-0.009-0.141-0.027-0.279-0.046-0.417
	c-0.094-1.557-0.72-3.084-1.888-4.252c-0.403-0.404-0.854-0.736-1.33-1.011c-0.952-0.581-2.076-0.922-3.339-0.922
	c-0.61,0-1.22,0.097-1.811,0.275c-1.054,0.293-2.042,0.843-2.858,1.658c-3.343,3.343-6.687,6.686-10.028,10.028
	c0-1.786,0-3.572,0-5.358c0-1.152-0.156-2.273-0.444-3.344c1.288-0.227,2.519-0.825,3.496-1.802
	C60.645,25.868,67.957,18.557,75.266,11.247z"/>
</svg>
