<?xml version="1.0" encoding="utf-8"?>
<!-- Generator: Adobe Illustrator 14.0.0, SVG Export Plug-In . SVG Version: 6.00 Build 43363)  -->
<!DOCTYPE svg PUBLIC "-//W3C//DTD SVG 1.0//EN" "http://www.w3.org/TR/2001/REC-SVG-20010904/DTD/svg10.dtd">
<svg version="1.0" id="Layer_1" xmlns="http://www.w3.org/2000/svg" xmlns:xlink="http://www.w3.org/1999/xlink" x="0px" y="0px"
	 width="95.445px" height="100px" viewBox="0 0 95.445 100" enable-background="new 0 0 95.445 100" xml:space="preserve">
<path d="M92.113,56.538c0.216-1.638,3.234-4.062,3.332-5.712c0.175-3-3.879-8.87-6.664-9.997
	c-4.422-1.789-26.896-0.952-26.896-0.952c-2.197-3.84,3.914-13.323,5.594-17.416c2.466-5.999,2.05-13.959-1.07-18.048
	c-3.81-4.996-10.805-5.329-10.949-3.093c-1.042,16.214-4.146,20.712-8.302,23.918c-2.496,1.926-4.679,3.611-5.83,6.547
	c-7.083,18.038-12.798,21.744-15.533,22.373h-1.75l0,0h-0.517v40.938l21.463,3.809c0,0,26.065,2.466,34.273,0
	c2.582-0.775,7.039-4.653,8.092-7.141c0.602-1.428-0.233-4.809,0.478-6.188c1.049-2.043,5.478-4.602,5.474-7.378
	c-0.004-1.979-2.31-5.405-2.142-7.379c0.167-1.976,4.288-4.685,4.284-6.664C95.441,62.077,91.84,58.598,92.113,56.538z"/>
<path d="M20.188,93.483c0,2.353-2.005,4.262-4.477,4.262H4.475c-2.473,0-4.479-1.909-4.479-4.262V56.17
	c0-2.354,2.005-4.267,4.479-4.267h11.237c2.471,0,4.477,1.912,4.477,4.267L20.188,93.483L20.188,93.483L20.188,93.483z"/>
</svg>
