<?xml version="1.0" encoding="utf-8"?>
<!-- Generator: Adobe Illustrator 14.0.0, SVG Export Plug-In . SVG Version: 6.00 Build 43363)  -->
<!DOCTYPE svg PUBLIC "-//W3C//DTD SVG 1.0//EN" "http://www.w3.org/TR/2001/REC-SVG-20010904/DTD/svg10.dtd">
<svg version="1.0" id="Layer_1" xmlns="http://www.w3.org/2000/svg" xmlns:xlink="http://www.w3.org/1999/xlink" x="0px" y="0px"
	 width="59.104px" height="100px" viewBox="0 0 59.104 100" enable-background="new 0 0 59.104 100" xml:space="preserve">
<path d="M59.103,69.381V48.713L29.552,46.8h0h0l-16.175,1.047V23.171v0c0-8.919,7.256-16.175,16.176-16.175
	c8.919,0,16.175,7.256,16.175,16.175v0v13.104h6.996V23.171v0C52.723,10.394,42.328,0,29.552,0S6.381,10.394,6.381,23.17v0V48.3
	l-6.38,0.413v20.667H0v8.038h0.001v20.668L29.551,100h0h0l29.55-1.913V77.419h0.001L59.103,69.381L59.103,69.381z"/>
</svg>
