<?xml version="1.0" encoding="utf-8"?>
<!-- Generator: Adobe Illustrator 14.0.0, SVG Export Plug-In . SVG Version: 6.00 Build 43363)  -->
<!DOCTYPE svg PUBLIC "-//W3C//DTD SVG 1.0//EN" "http://www.w3.org/TR/2001/REC-SVG-20010904/DTD/svg10.dtd">
<svg version="1.0" id="Layer_1" xmlns="http://www.w3.org/2000/svg" xmlns:xlink="http://www.w3.org/1999/xlink" x="0px" y="0px"
	 width="100px" height="82.043px" viewBox="0 0 100 82.043" enable-background="new 0 0 100 82.043" xml:space="preserve">
<path d="M94.799,38.418l-11.799,6V0h-8v48.486l-5.201-10.068l-6.298,3.202V0H55.5v45.688L50,48.486l-5.201-10.068L25,48.486
	l-5.201-10.068L0,48.486v33.557h25h25h25h25V48.486L94.799,38.418z M21,73.678H4V63.199h17V73.678z M45.999,73.678H29V63.199h16.999
	V73.678z M71,73.678H54V63.199h17V73.678z M95.999,73.678H79V63.199h16.999V73.678z"/>
</svg>
