<?xml version="1.0" encoding="utf-8"?>
<!-- Generator: Adobe Illustrator 14.0.0, SVG Export Plug-In . SVG Version: 6.00 Build 43363)  -->
<!DOCTYPE svg PUBLIC "-//W3C//DTD SVG 1.0//EN" "http://www.w3.org/TR/2001/REC-SVG-20010904/DTD/svg10.dtd">
<svg version="1.0" id="Layer_1" xmlns="http://www.w3.org/2000/svg" xmlns:xlink="http://www.w3.org/1999/xlink" x="0px" y="0px"
	 width="100px" height="77.753px" viewBox="0 0 100 77.753" enable-background="new 0 0 100 77.753" xml:space="preserve">
<path d="M99.993,20.614c0.015-5.786-4.813-10.183-10.017-10.187l-18.102,0.001L62.987,0H50H37.013l-8.888,10.429h-18.05
	C4.833,10.433,0.005,14.829,0,20.615c0.005,0.142,0,46.837,0,46.837c0.005,6.54,4.952,10.293,10.075,10.301h79.901
	c5.082-0.009,10.03-3.762,10.017-10.302C99.993,67.451,100.008,20.756,99.993,20.614z M39.321,5H50h10.679l4.627,5.429H34.694
	L39.321,5z"/>
</svg>
