<?xml version="1.0" encoding="utf-8"?>
<!-- Generator: Adobe Illustrator 14.0.0, SVG Export Plug-In . SVG Version: 6.00 Build 43363)  -->
<!DOCTYPE svg PUBLIC "-//W3C//DTD SVG 1.0//EN" "http://www.w3.org/TR/2001/REC-SVG-20010904/DTD/svg10.dtd">
<svg version="1.0" id="Layer_1" xmlns="http://www.w3.org/2000/svg" xmlns:xlink="http://www.w3.org/1999/xlink" x="0px" y="0px"
	 width="82.821px" height="100px" viewBox="0 0 82.821 100" enable-background="new 0 0 82.821 100" xml:space="preserve">
<path d="M70.707,29.297L51.041,9.628L41.41,0l-9.63,9.632L12.115,29.294c-16.154,16.153-16.154,42.438,0,58.593
	c16.153,16.151,42.438,16.151,58.59,0C86.859,71.733,86.859,45.451,70.707,29.297z M21.746,38.929L41.409,19.26l19.665,19.669
	c5.562,5.559,8.251,12.911,8.105,20.216c-2.203-0.769-4.446-0.003-7.256,1.952c-2.157,1.5-5.559,1.104-7.988-0.551
	c-3.302-2.338-5.183-1.77-8.662,0.302c-2.699,1.599-5.131,1.595-7.801,0c-3.496-2.079-5.29-2.64-8.622-0.302
	c-2.398,1.654-5.853,2.051-7.99,0.551c-2.82-1.949-5.036-2.715-7.22-1.955C13.496,51.836,16.185,44.488,21.746,38.929L21.746,38.929
	z M21.746,78.254c-2.975-2.975-5.104-6.471-6.445-10.186c1.228-0.086,2.63,0.224,4.14,1.259c3.407,2.312,6.285,2.312,9.146,0.302
	c2.894-2.011,4.489-2.377,7.989-0.353c3.393,2.312,6.75,2.1,9.632,0.104c3.493-2.037,5.124-1.762,7.987,0.249
	c2.895,2.011,5.772,2.011,9.185-0.302c1.521-1.046,2.919-1.348,4.136-1.253c-1.342,3.717-3.469,7.206-6.442,10.18
	C50.232,89.097,32.589,89.097,21.746,78.254z"/>
</svg>
