<?xml version="1.0" encoding="utf-8"?>
<!-- Generator: Adobe Illustrator 14.0.0, SVG Export Plug-In . SVG Version: 6.00 Build 43363)  -->
<!DOCTYPE svg PUBLIC "-//W3C//DTD SVG 1.1//EN" "http://www.w3.org/Graphics/SVG/1.1/DTD/svg11.dtd">
<svg version="1.1" id="Layer_1" xmlns="http://www.w3.org/2000/svg" xmlns:xlink="http://www.w3.org/1999/xlink" x="0px" y="0px"
	 width="792px" height="612px" viewBox="0 0 792 612" enable-background="new 0 0 792 612" xml:space="preserve">
<g>
	<path fill="#010101" d="M303.933,343.184l21.874,13.381c3.689,0,5.551-1.525,5.551-4.575c0-1.95-0.888-4.663-2.606-8.156
		l-48.324-90.761l-107.085,2.618c-4.792,0.227-7.184,2.723-7.184,7.508c0,1.09,1.523,2.61,4.568,4.57l22.203,13.38l-23.505,36.557
		c-6.524,10.455-9.789,19.066-9.789,25.806c0,6.108,2.157,12.96,6.524,20.57l72.808,126.99c-1.747-8.044-2.611-15.669-2.611-22.857
		c0-12.819,4.014-25.457,12.071-37.866L303.933,343.184L303.933,343.184z"/>
	<path fill="#010101" d="M332.016,269.078l60.069-93.045c-22.432-51.14-46.267-76.731-71.504-76.731
		c-15.245,0-25.449,4.257-30.679,12.731l-56.814,90.772L332.016,269.078L332.016,269.078z"/>
	<path fill="#010101" d="M283.043,521.104h115.896V400.643H287.286c-13.717,19.583-22.317,32.882-25.792,39.831
		c-5.67,11.094-8.486,22.427-8.486,33.943C253.008,505.552,263.012,521.104,283.043,521.104L283.043,521.104z"/>
	<path fill="#010101" d="M521.698,246.875l51.579-86.847c1.732-3.035,2.605-6.202,2.605-9.462c0-3.921-1.308-5.88-3.909-5.88
		c0.411,0-1.312,0.657-5.226,1.959l-23.506,10.772l-21.544-42.764c-9.588-19.148-28.731-28.732-57.464-28.732H330.059
		c16.318,5.014,27.414,9.906,33.294,14.69c13.717,10.89,27.749,31.343,42.109,61.375l26.78,56.161l-19.927,9.471
		c-1.956,0.878-2.936,2.608-2.936,5.219c0,3.265,2.062,5.131,6.205,5.553L521.698,246.875L521.698,246.875z"/>
	<path fill="#010101" d="M573.268,503.158l75.094-136.467c-11.102,12.634-23.181,21.122-36.234,25.468
		c-10.447,3.489-25.381,5.224-44.74,5.224h-83.569v-17.311c0-6.739-1.638-10.12-4.901-10.12c-2.401,0-4.148,0.888-5.218,2.612
		l-52.882,91.738l54.844,84.239c4.138,6.314,7.718,8.811,10.772,7.495c3.035-0.863,4.571-2.486,4.571-4.887v-28.736h46.357
		C554.339,522.414,566.304,516.002,573.268,503.158L573.268,503.158z"/>
	<path fill="#010101" d="M540.627,380.072h49.955c11.961,0,24.365-5.219,37.214-15.664c13.712-10.88,20.57-22.418,20.57-34.617
		c0-5.639-1.866-11.196-5.561-16.645l-59.406-90.758l-102.202,59.43L540.627,380.072L540.627,380.072z"/>
</g>
</svg>
