<?xml version="1.0" encoding="utf-8"?>
<!-- Generator: Adobe Illustrator 14.0.0, SVG Export Plug-In . SVG Version: 6.00 Build 43363)  -->
<!DOCTYPE svg PUBLIC "-//W3C//DTD SVG 1.1//EN" "http://www.w3.org/Graphics/SVG/1.1/DTD/svg11.dtd">
<svg version="1.1" id="Layer_1" xmlns="http://www.w3.org/2000/svg" xmlns:xlink="http://www.w3.org/1999/xlink" x="0px" y="0px"
	 width="792px" height="612px" viewBox="0 0 792 612" enable-background="new 0 0 792 612" xml:space="preserve">
<g>
	<path fill="#010101" d="M704.337,289.671l0.052-0.019L585.353,160.97h-52.413h-35.732c-12.613,0-22.854,10.225-22.854,22.853
		s10.24,22.853,22.854,22.853h72.474l94.625,201.08c33.132-6.383,58.166-35.497,58.166-70.491
		C722.472,318.983,715.586,302.344,704.337,289.671z"/>
	<path fill="#010101" d="M557.246,226.265h-60.039c-23.428,0-42.442-18.989-42.442-42.441c0-8.423,2.487-16.253,6.707-22.853
		H271.947v248.119h169.759c0-30.646,24.855-55.5,55.501-55.5c30.645,0,55.5,24.854,55.5,55.5h90.57L557.246,226.265z"/>
	<path fill="#010101" d="M497.207,366.647c-23.44,0-42.442,19.001-42.442,42.441c0,23.439,19.002,42.441,42.442,42.441
		c23.438,0,42.441-19.002,42.441-42.441C539.648,385.648,520.646,366.647,497.207,366.647z M497.207,431.942
		c-12.626,0-22.854-10.229-22.854-22.854s10.228-22.854,22.854-22.854c12.624,0,22.853,10.229,22.853,22.854
		S509.831,431.942,497.207,431.942z"/>
	<path fill="#010101" d="M177.257,366.647c-23.439,0-42.441,19.001-42.441,42.441c0,23.439,19.002,42.441,42.441,42.441
		c23.44,0,42.442-19.002,42.442-42.441C219.699,385.648,200.697,366.647,177.257,366.647z M177.257,431.942
		c-12.622,0-22.853-10.229-22.853-22.854s10.231-22.854,22.853-22.854c12.623,0,22.854,10.229,22.854,22.854
		S189.88,431.942,177.257,431.942z"/>
	<path fill="#010101" d="M128.293,219.735l-45.707,78.353v78.353H69.528v32.647h52.229c0-30.658,24.846-55.5,55.5-55.5
		c30.655,0,55.5,24.842,55.5,55.5h19.601V219.735H128.293z M177.257,291.559h-70.628l29.838-52.229h40.79V291.559z"/>
</g>
</svg>
