<?xml version="1.0" encoding="utf-8"?>
<!-- Generator: Adobe Illustrator 14.0.0, SVG Export Plug-In  -->
<!DOCTYPE svg PUBLIC "-//W3C//DTD SVG 1.1//EN" "http://www.w3.org/Graphics/SVG/1.1/DTD/svg11.dtd" [
	<!ENTITY ns_flows "http://ns.adobe.com/Flows/1.0/">
]>
<svg version="1.1"
	 xmlns="http://www.w3.org/2000/svg" xmlns:xlink="http://www.w3.org/1999/xlink" xmlns:a="http://ns.adobe.com/AdobeSVGViewerExtensions/3.0/"
	 x="0px" y="0px" width="792px" height="612px" viewBox="-69.011 -69.375 792 612" enable-background="new -69.011 -69.375 792 612"
	 xml:space="preserve">
<defs>
</defs>
<path fill="#010101" d="M327.222,171.469l13.808,286.873c0,15.26,12.366,27.633,27.623,27.633H590.77
	c15.26,0,27.629-12.373,27.629-27.633l13.805-286.873H327.222z"/>
<path fill="#010101" d="M614.819,38.552l-60.527,11.546l-5.266-27.648c-2.867-14.982-17.329-24.817-32.311-21.956L394.281,23.848
	c-14.984,2.856-24.817,17.32-21.958,32.305l5.271,27.645L318.43,95.084c-14.985,2.853-31.596,18.615-28.739,33.597l5.46,28.615
	L658,88.088l-5.458-28.612C649.686,44.491,629.794,35.696,614.819,38.552z M402.097,63.587c-1.431-7.491,3.481-14.722,10.978-16.153
	l94.846-18.09c7.494-1.428,14.722,3.487,16.152,10.978l2.856,14.993L404.954,78.581L402.097,63.587z"/>
<path fill="#FFFFFF" d="M437.273,328.596l9.238,5.648c1.563,0,2.35-0.645,2.35-1.922c0-0.826-0.373-1.98-1.1-3.451l-20.42-38.355
	l-45.245,1.102c-2.025,0.107-3.035,1.166-3.035,3.174c0,0.469,0.64,1.107,1.932,1.934l9.381,5.656l-9.938,15.451
	c-2.754,4.418-4.132,8.059-4.132,10.904c0,2.572,0.911,5.48,2.757,8.688l30.759,53.666c-0.735-3.41-1.097-6.629-1.097-9.676
	c0-5.408,1.693-10.746,5.098-15.984L437.273,328.596L437.273,328.596z"/>
<path fill="#FFFFFF" d="M449.135,297.286l25.38-39.312c-9.474-21.605-19.543-32.424-30.21-32.424c-6.438,0-10.751,1.798-12.96,5.384
	l-24.011,38.351L449.135,297.286L449.135,297.286z"/>
<path fill="#FFFFFF" d="M428.447,403.77h48.967v-50.895h-47.171c-5.797,8.273-9.437,13.891-10.901,16.83
	c-2.396,4.689-3.583,9.475-3.583,14.338C415.758,397.204,419.981,403.77,428.447,403.77L428.447,403.77z"/>
<path fill="#FFFFFF" d="M529.288,287.903l21.785-36.699c0.736-1.279,1.104-2.613,1.104-3.994c0-1.65-0.549-2.482-1.651-2.482
	c0.175,0-0.549,0.277-2.212,0.832l-9.926,4.553l-9.1-18.076c-4.055-8.091-12.137-12.14-24.274-12.14H448.31
	c6.899,2.115,11.585,4.188,14.065,6.207c5.8,4.606,11.725,13.245,17.799,25.931l11.311,23.732l-8.421,3.998
	c-0.826,0.367-1.239,1.104-1.239,2.211c0,1.381,0.871,2.16,2.625,2.336L529.288,287.903L529.288,287.903z"/>
<path fill="#FFFFFF" d="M551.073,396.186l31.734-57.666c-4.688,5.346-9.795,8.943-15.315,10.77
	c-4.417,1.477-10.724,2.205-18.907,2.205h-35.309v-7.312c0-2.85-0.689-4.281-2.069-4.281c-1.013,0-1.753,0.385-2.206,1.109
	l-22.346,38.752l23.178,35.602c1.747,2.676,3.263,3.717,4.553,3.168c1.277-0.355,1.934-1.053,1.934-2.059v-12.143h19.586
	C543.082,404.331,548.126,401.622,551.073,396.186L551.073,396.186z"/>
<path fill="#FFFFFF" d="M537.285,344.182h21.112c5.051,0,10.294-2.199,15.706-6.611c5.803-4.609,8.704-9.484,8.704-14.637
	c0-2.387-0.791-4.729-2.358-7.035l-25.094-38.34l-43.182,25.111L537.285,344.182L537.285,344.182z"/>
<polygon fill="#010101" points="96.509,306.271 0,209.63 96.509,112.996 160.332,112.996 86.856,186.468 231.233,186.468 
	231.233,233.305 87.377,233.305 160.464,306.401 "/>
</svg>
