<?xml version="1.0" encoding="utf-8"?>
<!-- Generator: Adobe Illustrator 14.0.0, SVG Export Plug-In  -->
<!DOCTYPE svg PUBLIC "-//W3C//DTD SVG 1.1//EN" "http://www.w3.org/Graphics/SVG/1.1/DTD/svg11.dtd" [
	<!ENTITY ns_flows "http://ns.adobe.com/Flows/1.0/">
]>
<svg version="1.1"
	 xmlns="http://www.w3.org/2000/svg" xmlns:xlink="http://www.w3.org/1999/xlink" xmlns:a="http://ns.adobe.com/AdobeSVGViewerExtensions/3.0/"
	 x="0px" y="0px" width="792px" height="612px" viewBox="-47.68 -186.18 792 612" enable-background="new -47.68 -186.18 792 612"
	 xml:space="preserve">
<defs>
</defs>
<path fill="#010101" d="M473.043,95.905l0.039-0.014L384.379,0h-39.057h-26.627c-9.399,0-17.03,7.619-17.03,17.029
	c0,9.411,7.63,17.03,17.03,17.03H372.7l70.513,149.839c24.688-4.756,43.344-26.451,43.344-52.527
	C486.557,117.748,481.426,105.348,473.043,95.905z"/>
<path fill="#010101" d="M363.435,48.656h-44.739c-17.458,0-31.627-14.15-31.627-31.626c0-6.277,1.854-12.111,4.998-17.029H150.837
	v184.892h126.5c0-22.837,18.521-41.357,41.358-41.357c22.835,0,41.357,18.521,41.357,41.357h67.49L363.435,48.656z"/>
<path fill="#010101" d="M318.695,153.265c-17.467,0-31.627,14.159-31.627,31.627c0,17.466,14.16,31.626,31.627,31.626
	c17.466,0,31.626-14.16,31.626-31.626C350.321,167.424,336.161,153.265,318.695,153.265z M318.695,201.921
	c-9.409,0-17.03-7.622-17.03-17.029c0-9.408,7.621-17.03,17.03-17.03c9.407,0,17.029,7.622,17.029,17.03
	C335.725,194.299,328.103,201.921,318.695,201.921z"/>
<path fill="#010101" d="M80.277,153.265c-17.466,0-31.626,14.159-31.626,31.627c0,17.466,14.16,31.626,31.626,31.626
	c17.467,0,31.626-14.16,31.626-31.626C111.903,167.424,97.744,153.265,80.277,153.265z M80.277,201.921
	c-9.405,0-17.029-7.622-17.029-17.029c0-9.408,7.624-17.03,17.029-17.03c9.406,0,17.03,7.622,17.03,17.03
	C97.307,194.299,89.683,201.921,80.277,201.921z"/>
<path fill="#010101" d="M43.79,43.791L9.731,102.177v58.387H0v24.328h38.92c0-22.846,18.514-41.357,41.357-41.357
	c22.843,0,41.357,18.512,41.357,41.357h14.606V43.791H43.79z M80.277,97.311h-52.63l22.234-38.919h30.396V97.311z"/>
<polygon fill="#010101" points="619.277,32.284 690.367,103.472 619.277,174.654 572.264,174.654 626.387,120.532 520.037,120.532 
	520.037,86.031 626.004,86.031 572.166,32.188 "/>
<text transform="matrix(1 0 0 1 108.144 344.4526)" font-family="'Oswald'" font-size="94.4945">WASTE</text>
</svg>
