<?xml version="1.0" encoding="utf-8"?>
<!-- Generator: Adobe Illustrator 14.0.0, SVG Export Plug-In . SVG Version: 6.00 Build 43363)  -->
<!DOCTYPE svg PUBLIC "-//W3C//DTD SVG 1.1//EN" "http://www.w3.org/Graphics/SVG/1.1/DTD/svg11.dtd">
<svg version="1.1" id="Layer_1" xmlns="http://www.w3.org/2000/svg" xmlns:xlink="http://www.w3.org/1999/xlink" x="0px" y="0px"
	 width="792px" height="612px" viewBox="0 0 792 612" enable-background="new 0 0 792 612" xml:space="preserve">
<g>
	<polygon fill="#010101" points="255.113,136.688 255.113,444.782 226.158,444.782 226.158,136.688 	"/>
	<path fill="#010101" d="M240.639,290.642"/>
	<path fill="#010101" d="M134.804,184.622c14.083,0.074,25.452-11.291,25.377-25.379c0.074-13.958-11.294-25.323-25.377-25.377
		c-13.955,0.055-25.323,11.42-25.376,25.372C109.481,173.331,120.85,184.692,134.804,184.622L134.804,184.622z"/>
	<path fill="#010101" d="M134.804,159.237"/>
	<path fill="#010101" d="M131.046,345.721v88.728c0.078,16.013-23.861,16.013-23.872,0v-88.728H75.407l34.021-117.866h-5.45
		L84.047,295.15c-4.74,14.708-24.877,8.678-20.303-6.948l22.184-73.131c2.422-8.369,12.964-23.147,31.205-23.123h16.729l0,0h18.236
		c18.045-0.021,28.624,14.873,31.392,23.123L205.672,288c4.439,15.74-15.543,22.253-20.308,6.955l-19.917-67.104h-5.831
		l34.21,117.862h-31.764v88.913c-0.01,15.82-23.853,15.74-23.872,0v-88.913h-7.143V345.721z"/>
	<path fill="#010101" d="M316.015,191.761c-17.84,0.071-32.205,14.848-32.143,33.273v78.571c-0.062,15.266,21.977,15.266,21.992,0
		v-71.799h5.262v199.065c-0.067,20.361,29.286,19.747,29.326,0V314.324h5.076v116.547c-0.067,19.747,29.443,20.361,29.504,0V231.806
		h5.082v71.799c-0.046,15.391,21.873,15.384,21.811,0v-78.002c0.027-17.093-12.985-33.74-32.525-33.655L316.015,191.761
		L316.015,191.761z"/>
	<path fill="#010101" d="M342.894,184.622c13.945,0.074,25.315-11.291,25.374-25.379c-0.059-13.958-11.429-25.323-25.374-25.377
		c-14.094,0.055-25.464,11.42-25.371,25.372C317.43,173.331,328.8,184.692,342.894,184.622L342.894,184.622z"/>
	<path fill="#010101" d="M342.894,159.237"/>
</g>
<g>
	<polygon fill="#010101" points="653.2,181.935 761.356,290.241 653.2,398.537 581.673,398.537 664.016,316.196 502.215,316.196 
		502.215,263.707 663.434,263.707 581.523,181.79 	"/>
</g>
</svg>
