<?xml version="1.0" encoding="utf-8"?>
<!-- Generator: Adobe Illustrator 14.0.0, SVG Export Plug-In . SVG Version: 6.00 Build 43363)  -->
<!DOCTYPE svg PUBLIC "-//W3C//DTD SVG 1.1//EN" "http://www.w3.org/Graphics/SVG/1.1/DTD/svg11.dtd">
<svg version="1.1" id="Layer_1" xmlns="http://www.w3.org/2000/svg" xmlns:xlink="http://www.w3.org/1999/xlink" x="0px" y="0px"
	 width="792px" height="612px" viewBox="0 0 792 612" enable-background="new 0 0 792 612" xml:space="preserve">
<g>
	<polygon fill="#010101" points="418.662,91.879 418.662,530.073 377.48,530.073 377.48,91.879 	"/>
	<path fill="#010101" d="M398.076,310.844"/>
	<path fill="#010101" d="M247.551,160.055c20.03,0.105,36.199-16.059,36.094-36.096c0.105-19.852-16.063-36.016-36.094-36.094
		c-19.847,0.078-36.016,16.242-36.091,36.086C211.535,143.996,227.704,160.155,247.551,160.055L247.551,160.055z"/>
	<path fill="#010101" d="M247.551,123.951"/>
	<path fill="#010101" d="M242.206,389.181v126.194c0.11,22.774-33.937,22.774-33.952,0V389.181h-45.182l48.387-167.637h-7.752
		l-28.347,95.712c-6.741,20.918-35.382,12.342-28.876-9.883l31.552-104.012c3.445-11.902,18.438-32.922,44.382-32.886h23.793l0,0
		h25.937c25.665-0.031,40.711,21.152,44.648,32.886l31.548,103.726c6.313,22.387-22.106,31.65-28.884,9.892l-28.328-95.439h-8.293
		l48.656,167.632h-45.177v126.458c-0.014,22.501-33.925,22.388-33.953,0V389.171h-10.159V389.181z"/>
	<path fill="#010101" d="M505.281,170.209c-25.373,0.102-45.805,21.118-45.716,47.323v111.749c-0.089,21.712,31.257,21.712,31.278,0
		V227.163h7.484v283.124c-0.095,28.96,41.652,28.086,41.709,0V344.526h7.22v165.761c-0.095,28.086,41.877,28.96,41.963,0V227.163
		h7.228v102.118c-0.065,21.89,31.109,21.88,31.021,0v-110.94c0.039-24.312-18.469-47.987-46.259-47.867L505.281,170.209
		L505.281,170.209z"/>
	<path fill="#010101" d="M543.51,160.055c19.834,0.105,36.005-16.059,36.089-36.096c-0.084-19.852-16.255-36.016-36.089-36.094
		c-20.045,0.078-36.217,16.242-36.084,36.086C507.293,143.996,523.465,160.155,543.51,160.055L543.51,160.055z"/>
	<path fill="#010101" d="M543.51,123.951"/>
</g>
</svg>
