<?xml version="1.0" encoding="utf-8"?>
<!-- Generator: Adobe Illustrator 14.0.0, SVG Export Plug-In . SVG Version: 6.00 Build 43363)  -->
<!DOCTYPE svg PUBLIC "-//W3C//DTD SVG 1.1//EN" "http://www.w3.org/Graphics/SVG/1.1/DTD/svg11.dtd">
<svg version="1.1" id="Layer_1" xmlns="http://www.w3.org/2000/svg" xmlns:xlink="http://www.w3.org/1999/xlink" x="0px" y="0px"
	 width="792px" height="612px" viewBox="0 0 792 612" enable-background="new 0 0 792 612" xml:space="preserve">
<g>
	<polygon fill="#010101" points="571.113,136.688 571.113,444.782 542.158,444.782 542.158,136.688 	"/>
	<path fill="#010101" d="M556.639,290.642"/>
	<path fill="#010101" d="M450.805,184.622c14.083,0.074,25.451-11.291,25.377-25.379c0.074-13.958-11.294-25.323-25.377-25.377
		c-13.955,0.055-25.323,11.42-25.377,25.372C425.481,173.331,436.85,184.692,450.805,184.622L450.805,184.622z"/>
	<path fill="#010101" d="M450.805,159.237"/>
	<path fill="#010101" d="M447.047,345.721v88.728c0.077,16.013-23.861,16.013-23.872,0v-88.728h-31.768l34.021-117.866h-5.449
		l-19.932,67.295c-4.74,14.708-24.877,8.678-20.303-6.948l22.184-73.131c2.423-8.369,12.965-23.147,31.205-23.123h16.729l0,0h18.236
		c18.045-0.021,28.624,14.873,31.392,23.123L521.672,288c4.439,15.74-15.543,22.253-20.309,6.955l-19.917-67.104h-5.831
		l34.21,117.862h-31.765v88.913c-0.01,15.82-23.852,15.74-23.871,0v-88.913h-7.143V345.721z"/>
	<path fill="#010101" d="M632.015,191.761c-17.84,0.071-32.204,14.848-32.143,33.273v78.571c-0.062,15.266,21.978,15.266,21.992,0
		v-71.799h5.263v199.065c-0.067,20.361,29.285,19.747,29.325,0V314.324h5.076v116.547c-0.067,19.747,29.443,20.361,29.504,0V231.806
		h5.082v71.799c-0.046,15.391,21.873,15.384,21.811,0v-78.002c0.027-17.093-12.985-33.74-32.524-33.655L632.015,191.761
		L632.015,191.761z"/>
	<path fill="#010101" d="M658.895,184.622c13.944,0.074,25.314-11.291,25.373-25.379c-0.059-13.958-11.429-25.323-25.373-25.377
		c-14.095,0.055-25.465,11.42-25.371,25.372C633.43,173.331,644.8,184.692,658.895,184.622L658.895,184.622z"/>
	<path fill="#010101" d="M658.895,159.237"/>
</g>
<g>
	<polygon fill="#010101" points="234.047,181.79 152.137,263.707 313.355,263.707 313.355,316.196 151.555,316.196 233.897,398.537 
		162.37,398.537 54.214,290.241 162.37,181.935 	"/>
</g>
</svg>
