<?xml version="1.0" encoding="utf-8"?>
<!-- Generator: Adobe Illustrator 15.1.0, SVG Export Plug-In . SVG Version: 6.00 Build 0)  -->
<!DOCTYPE svg PUBLIC "-//W3C//DTD SVG 1.1//EN" "http://www.w3.org/Graphics/SVG/1.1/DTD/svg11.dtd">
<svg version="1.1" id="Layer_1" xmlns="http://www.w3.org/2000/svg" xmlns:xlink="http://www.w3.org/1999/xlink" x="0px" y="0px"
	 width="100px" height="44.5px" viewBox="0 0 100 44.5" enable-background="new 0 0 100 44.5" xml:space="preserve">
<path d="M97.223,19.711l0.008-0.003L79,0h-8.028H65.5C63.568,0,62,1.566,62,3.5S63.568,7,65.5,7h11.1l14.492,30.796
	C96.166,36.818,100,32.359,100,27C100,24.2,98.945,21.652,97.223,19.711z"/>
<path d="M74.695,10H65.5C61.912,10,59,7.092,59,3.5c0-1.29,0.381-2.489,1.028-3.5H31.001v38H57c0-4.694,3.806-8.5,8.5-8.5
	S74,33.306,74,38h13.871L74.695,10z"/>
<path d="M65.5,31.5c-3.59,0-6.5,2.91-6.5,6.5s2.91,6.5,6.5,6.5S72,41.59,72,38S69.09,31.5,65.5,31.5z M65.5,41.5
	c-1.934,0-3.5-1.567-3.5-3.5s1.566-3.5,3.5-3.5S69,36.067,69,38S67.434,41.5,65.5,41.5z"/>
<path d="M16.499,31.5c-3.59,0-6.5,2.91-6.5,6.5s2.91,6.5,6.5,6.5s6.5-2.91,6.5-6.5S20.089,31.5,16.499,31.5z M16.499,41.5
	c-1.933,0-3.5-1.567-3.5-3.5s1.567-3.5,3.5-3.5s3.5,1.567,3.5,3.5S18.432,41.5,16.499,41.5z"/>
<path d="M9,9L2,21v12H0l0,5h7.999c0-4.695,3.805-8.5,8.5-8.5s8.5,3.805,8.5,8.5h3.002V9H9z M16.499,20H5.682l4.57-7.999h6.247V20z"
	/>
</svg>
