<?xml version="1.0" encoding="utf-8"?>
<!-- Generator: Adobe Illustrator 15.0.2, SVG Export Plug-In . SVG Version: 6.00 Build 0)  -->
<!DOCTYPE svg PUBLIC "-//W3C//DTD SVG 1.1//EN" "http://www.w3.org/Graphics/SVG/1.1/DTD/svg11.dtd">
<svg version="1.1" id="Layer_1" xmlns="http://www.w3.org/2000/svg" xmlns:xlink="http://www.w3.org/1999/xlink" x="0px" y="0px"
	 width="1215.876px" height="400px" viewBox="0 0 1215.876 400" enable-background="new 0 0 1215.876 400" xml:space="preserve">
<path fill="#231F20" d="M869.825,345.488c1.987-0.167,3.983-0.278,5.996-0.293c4.94-0.034,9.904,0.256,14.856,0.773h261.068
	c0.546-0.002,1.092-0.012,1.639-0.012c0.777,0,1.555,0.004,2.332,0.004c19.251-0.145,34.81-13.927,34.81-30.91V68.993
	c0-17.075-15.723-30.918-35.115-30.918H875.959c-19.391,0-35.115,13.843-35.115,30.918v246.058
	C840.844,330.281,853.359,342.932,869.825,345.488z"/>
<g>
	<circle fill="#FFFFFF" cx="1020.253" cy="156.277" r="55.194"/>
	<path fill="#FFFFFF" d="M967.223,346.598c10.536,0.126,21.062,0.436,31.585,0.851c21.483-0.124,42.943,0.239,64.475,0.208
		c12.805-0.019,25.605-0.328,38.404-0.677V268.5h-0.001c0-21.027-14.737-38.068-32.922-38.068h-93.438
		c-18.19,0-32.929,17.041-32.929,38.068v77.931C950.678,346.419,958.959,346.501,967.223,346.598z"/>
	<path fill="#FFFFFF" d="M999.392,277.704l-67.873-78.393v-87.075v-6.594v-7.201h-0.032c-0.37-11.809-12.896-21.301-28.311-21.301
		c-15.652,0-28.343,9.772-28.343,21.832v4.72c-0.104,0.624,0,1.305,0,1.95v1.319v95.701c-0.471,9.169,0.311,15.348,3.845,22.221
		l4.785,5.529l73.067,84.398c2.879,3.326,8.417,3.261,12.363-0.154l28.577-24.737C1001.41,286.5,1002.271,281.031,999.392,277.704z"
		/>
	<g>
		<path fill="#FFFFFF" d="M1164.728,98.391c-0.413-11.788-12.91-21.251-28.31-21.251c-15.65,0-28.345,9.773-28.345,21.833
			c0,0.085,0.021,0.17,0.021,0.257h-0.021v6.411v7.387v86.284l-67.873,78.393c-2.883,3.327-2.019,8.796,1.923,12.216l28.577,24.737
			c3.947,3.415,9.484,3.48,12.365,0.154l73.066-84.398l4.786-5.529c3.527-6.873,4.312-13.052,3.843-22.221v-90.477h0.024V98.391
			H1164.728z"/>
	</g>
</g>
<path opacity="0.5" fill="#FFFFFF" enable-background="new    " d="M900.256,347.233V39.74h-11.221v306.076
	C892.786,346.169,896.531,346.646,900.256,347.233z"/>
<path opacity="0.5" fill="#FFFFFF" enable-background="new    " d="M933.368,346.489V39.74h-11.224v306.972
	C925.884,346.606,929.627,346.534,933.368,346.489z"/>
<path fill="#231F20" d="M900.959,249.164c0,1.479-11.226-9.291-11.226-10.77V78.68c0-1.479,2.508-2.679,5.611-2.679l0,0
	c3.104,0,5.612,1.198,5.612,2.679v170.484H900.959z"/>
<path opacity="0.5" fill="#FFFFFF" enable-background="new    " d="M964.223,346.565V39.74H953v306.72
	C956.742,346.484,960.483,346.521,964.223,346.565z"/>
<path opacity="0.5" fill="#FFFFFF" enable-background="new    " d="M995.982,347.334V39.74h-11.226v307.231
	C988.5,347.076,992.241,347.194,995.982,347.334z"/>
<path opacity="0.5" fill="#FFFFFF" enable-background="new    " d="M1026.906,347.487V39.74h-11.221v307.691
	C1019.425,347.443,1023.166,347.462,1026.906,347.487z"/>
<path opacity="0.5" fill="#FFFFFF" enable-background="new    " d="M1057.312,347.646V39.74h-11.226v307.868
	C1049.826,347.629,1053.568,347.64,1057.312,347.646z"/>
<path opacity="0.5" fill="#FFFFFF" enable-background="new    " d="M1089.517,347.287V39.74h-11.221v307.766
	C1082.037,347.445,1085.776,347.374,1089.517,347.287z"/>
<path opacity="0.5" fill="#FFFFFF" enable-background="new    " d="M1121.276,346.454V39.74h-11.224v307.013
	C1113.794,346.649,1117.535,346.549,1121.276,346.454z"/>
<path opacity="0.5" fill="#FFFFFF" enable-background="new    " d="M1150.65,345.976V39.74h-11.223v306.34
	C1143.168,346.024,1146.909,345.99,1150.65,345.976z"/>
<path opacity="0.5" fill="#FFFFFF" enable-background="new    " d="M1181.055,340.517V39.74h-11.225v305.92
	C1173.574,343.948,1177.312,342.226,1181.055,340.517z"/>
<path opacity="0.5" fill="#FFFFFF" enable-background="new    " d="M867.815,345.679V39.74H856.59v302.502
	c2.854,1.143,5.674,2.391,8.423,3.767C865.944,345.885,866.879,345.777,867.815,345.679z"/>
<path fill="#231F20" d="M932.203,97.486c-0.019-0.08-0.046-0.154-0.062-0.236c-0.673-3.438-2.439-6.905-4.668-9.617
	c-0.275-0.336-0.563-0.697-0.857-1.066c-2-1.901-4.098-3.664-6.417-5.156v193.634c0,1.835,12.008,15.201,12.008,13.368h-0.003
	V97.486z"/>
<path fill="#231F20" d="M964.353,346.095V239.764c-0.019-0.08-0.047-0.154-0.062-0.235c-0.675-3.439-2.44-6.906-4.67-9.618
	c-0.275-0.336-0.562-0.697-0.857-1.066c-2-1.901-4.098-3.662-6.416-5.155v122.406H964.353z"/>
<path fill="#231F20" d="M994.887,344.34V230.038h-12.006v115.766C986.776,344.948,990.789,344.455,994.887,344.34z"/>
<rect x="1014.248" y="230.038" fill="#231F20" width="12.006" height="114.255"/>
<rect x="1045.175" y="230.038" fill="#231F20" width="12.006" height="114.255"/>
<path fill="#231F20" d="M1088.679,344.293V221.277c-2.814,3.116-5.78,6.092-8.492,9.303c-0.878,1.042-2.537,0.92-3.513,0.113v113.6
	H1088.679z"/>
<path fill="#231F20" d="M1088.679,345.193V222.774c-0.173,0.194-0.321,0.398-0.503,0.586c-1.463,1.516-2.946,2.66-4.525,3.625
	c-0.862,0.929-1.748,1.823-2.631,2.721c-0.049,0.14-0.124,0.268-0.169,0.41c-0.388,1.267-1.823,2.293-3.18,1.805
	c-0.33-0.117-0.664-0.223-0.997-0.328v111.45c0,0.353,0.452,1.138,1.168,2.15H1088.679z"/>
<path fill="#231F20" d="M1109.583,283.648c0.86-1.712,2.083-3.123,3.522-4.249c0.535-0.699,1.074-1.394,1.638-2.07
	c1.752-2.104,3.856-3.884,6.138-5.399c0.122-0.208,0.264-0.397,0.396-0.598V79.672c-0.387,0.193-0.773,0.384-1.158,0.587
	c-0.622,0.33-1.259,0.603-1.903,0.847c-0.149,0.169-0.287,0.345-0.444,0.509c-0.425,0.439-0.837,0.891-1.254,1.337
	c-1.2,1.484-2.372,2.77-3.737,3.986c-0.026,0.027-0.053,0.056-0.078,0.084c-0.003-0.003-0.004-0.006-0.007-0.01
	c-0.109,0.099-0.217,0.196-0.329,0.292c-0.473,0.789-0.928,1.583-1.357,2.403c-0.312,0.599-0.681,1.149-1.072,1.678
	c-0.295,0.517-0.602,1.026-0.893,1.546v191.761C1109.223,284.345,1109.405,283.998,1109.583,283.648z"/>
<path fill="#231F20" d="M1140.036,250.147c0.012-0.017,0.022-0.033,0.033-0.05c0.982-1.455,1.979-2.899,3.027-4.31
	c2.098-2.821,4.137-5.177,6.487-7.36c0.636-0.814,1.259-1.64,1.901-2.448c0.528-0.664,1.128-1.229,1.765-1.736V79.3
	c-3.555-0.743-7.11-1.544-10.763-2.252c-1.068-0.207-2.072-0.329-3.06-0.409v174.317
	C1139.631,250.688,1139.833,250.418,1140.036,250.147z"/>
<path fill="#231F20" d="M989.096,202.512c1.258,0.855,2.497,1.747,3.792,2.543c0.528,0.324,1.063,0.646,1.609,0.943V105.744
	c-3.563,1.831-7.14,3.721-10.339,6.091c-0.296,0.349-0.594,0.695-0.885,1.063v86.021c0.457,0.246,0.889,0.568,1.307,0.931
	C986.149,200.621,987.654,201.53,989.096,202.512z"/>
<path fill="#231F20" d="M1023.141,101.098c-2.76-0.219-5.519-0.16-8.284-0.109c-0.393,0.094-0.786,0.182-1.181,0.243v110.051
	c2.296,0.216,4.593,0.436,6.894,0.554c1.44,0.073,2.887,0.145,4.331,0.13V101.22
	C1024.316,101.203,1023.729,101.168,1023.141,101.098z"/>
<path fill="#231F20" d="M1055.505,112.65c-3.61-2.529-5.888-3.924-9.419-5.031v97.395c0.07-0.038,0.13-0.086,0.202-0.124
	c1.306-0.688,2.559-1.464,3.769-2.308c0.656-0.562,2.656-2.17,3.085-2.538c1.289-1.104,2.697-2.002,4.168-2.698V113.83
	C1056.687,113.451,1056.084,113.057,1055.505,112.65z"/>
<path fill="#231F20" d="M772.33,319.416c0,17.934-14.538,32.471-32.47,32.471H481.45c-17.931,0-32.47-14.537-32.47-32.471V61.006
	c0-17.932,14.539-32.47,32.47-32.47h258.41c17.932,0,32.47,14.538,32.47,32.47V319.416z"/>
<path fill="#231F20" d="M354.786,317.012c0,17.837-14.46,32.297-32.297,32.297H65.458c-17.835,0-32.297-14.46-32.297-32.297V59.979
	c0-17.836,14.462-32.297,32.297-32.297h257.031c17.837,0,32.297,14.461,32.297,32.297V317.012z"/>
<path fill="#FFFFFF" d="M739.354,81.813c0,1.317-11.646,2.388-26.007,2.388H506.365c-14.361,0-26.009-1.07-26.009-2.388V62.79
	c0-1.32,11.646-2.39,26.009-2.39h206.982c14.359,0,26.007,1.071,26.007,2.39V81.813z"/>
<g>
	<circle fill="#FFFFFF" cx="607.97" cy="157.252" r="42.369"/>
	<path fill="#FFFFFF" d="M539.696,295.7H672.6v-15.197l32.015-36.976c0.451-0.523,0.773-1.12,0.982-1.757
		c0.939-0.681,1.802-1.468,2.584-2.368c3.88-4.479,4.722-10.681,2.869-16.58v-72.394c0-0.632-0.146-1.236-0.402-1.8
		c0.263-1.028,0.402-2.09,0.402-3.178c0-8.997-9.468-16.29-21.146-16.29c-11.682,0-21.15,7.293-21.15,16.29
		c0,1.086,0.139,2.149,0.402,3.178c-0.256,0.563-0.402,1.168-0.402,1.8v69.891l-4.944,5.713c-4.903-4.561-11.455-7.37-18.683-7.37
		h-77.955c-6.683,0-12.804,2.39-17.567,6.358l-1.444-1.669v-69.89c0-0.633-0.145-1.235-0.402-1.801
		c0.261-1.029,0.402-2.09,0.402-3.177c0-8.998-9.468-16.291-21.15-16.291c-11.68,0-21.149,7.293-21.149,16.291
		c0,1.087,0.142,2.147,0.405,3.177c-0.257,0.565-0.405,1.17-0.405,1.801v72.394c-1.853,5.898-1.008,12.104,2.871,16.582
		c0.779,0.9,1.645,1.687,2.584,2.367c0.21,0.639,0.532,1.235,0.986,1.758l27.395,31.643V295.7z"/>
</g>
<g>
	<path fill="#FFFFFF" d="M193.49,171.463c23.272,0,42.141,18.868,42.141,42.145c0,23.274-18.869,42.143-42.141,42.143
		c-23.278,0-42.146-18.868-42.146-42.143C151.344,190.331,170.212,171.463,193.49,171.463z"/>
	<path fill="#FFFFFF" d="M125.578,351.317h132.197v-15.116l31.842-36.778c0.452-0.521,0.769-1.115,0.981-1.748
		c0.934-0.676,1.79-1.458,2.567-2.354c3.861-4.455,4.699-10.625,2.854-16.492V206.82c0-0.628-0.142-1.229-0.4-1.79
		c0.263-1.023,0.4-2.079,0.4-3.16c0-8.948-9.416-16.202-21.031-16.202c-11.621,0-21.041,7.254-21.041,16.202
		c0,1.079,0.137,2.137,0.4,3.16c-0.252,0.561-0.4,1.162-0.4,1.79v69.519l-4.915,5.681c-4.879-4.536-11.396-7.33-18.584-7.33h-77.54
		c-6.65,0-12.738,2.379-17.474,6.325L134,279.355v-69.52c0-0.628-0.147-1.227-0.401-1.79c0.258-1.022,0.401-2.078,0.401-3.159
		c0-8.95-9.421-16.204-21.041-16.204c-11.616,0-21.032,7.254-21.032,16.204c0,1.081,0.139,2.137,0.4,3.159
		c-0.257,0.563-0.4,1.164-0.4,1.79v72.01c-1.846,5.866-1.003,12.038,2.854,16.494c0.778,0.896,1.638,1.678,2.568,2.354
		c0.211,0.634,0.53,1.228,0.98,1.748l27.253,31.476v17.4H125.578z"/>
</g>
<path fill="#FFFFFF" d="M501.282,316.451c0,2.287-1.855,4.145-4.146,4.145l0,0c-2.29,0-4.145-1.857-4.145-4.145V69.284
	c0-2.291,1.855-4.147,4.145-4.147l0,0c2.291,0,4.146,1.856,4.146,4.147V316.451z"/>
<path fill="#FFFFFF" d="M532.078,316.451c0,2.287-1.855,4.145-4.146,4.145l0,0c-2.29,0-4.146-1.857-4.146-4.145V69.284
	c0-2.291,1.855-4.147,4.146-4.147l0,0c2.29,0,4.146,1.856,4.146,4.147V316.451z"/>
<path fill="#231F20" d="M532.078,264.986c0,1.211-1.855,2.194-4.146,2.194l0,0c-2.29,0-4.146-0.983-4.146-2.194V133.976
	c0-1.214,1.855-2.197,4.146-2.197l0,0c2.29,0,4.146,0.983,4.146,2.197V264.986z"/>
<path fill="#FFFFFF" d="M564.058,316.451c0,2.287-1.855,4.145-4.146,4.145l0,0c-2.29,0-4.145-1.857-4.145-4.145V69.284
	c0-2.291,1.855-4.147,4.145-4.147l0,0c2.291,0,4.146,1.856,4.146,4.147V316.451z"/>
<path fill="#FFFFFF" d="M594.853,316.451c0,2.287-1.856,4.145-4.146,4.145l0,0c-2.29,0-4.146-1.857-4.146-4.145V69.284
	c0-2.291,1.855-4.147,4.146-4.147l0,0c2.29,0,4.146,1.856,4.146,4.147V316.451z"/>
<path fill="#FFFFFF" d="M631.57,316.451c0,2.287-1.855,4.145-4.146,4.145l0,0c-2.29,0-4.145-1.857-4.145-4.145V69.284
	c0-2.291,1.854-4.147,4.145-4.147l0,0c2.291,0,4.146,1.856,4.146,4.147V316.451z"/>
<path fill="#FFFFFF" d="M662.366,316.451c0,2.287-1.856,4.145-4.146,4.145l0,0c-2.29,0-4.146-1.857-4.146-4.145V69.284
	c0-2.291,1.855-4.147,4.146-4.147l0,0c2.29,0,4.146,1.856,4.146,4.147V316.451z"/>
<path fill="#FFFFFF" d="M694.345,316.451c0,2.287-1.854,4.145-4.146,4.145l0,0c-2.29,0-4.145-1.857-4.145-4.145V69.284
	c0-2.291,1.854-4.147,4.145-4.147l0,0c2.291,0,4.146,1.856,4.146,4.147V316.451z"/>
<path fill="#FFFFFF" d="M725.141,316.451c0,2.287-1.855,4.145-4.146,4.145l0,0c-2.29,0-4.146-1.857-4.146-4.145V69.284
	c0-2.291,1.855-4.147,4.146-4.147l0,0c2.29,0,4.146,1.856,4.146,4.147V316.451z"/>
<path fill="#231F20" d="M564.058,306.876c0,0.802-1.855,1.455-4.146,1.455l0,0c-2.29,0-4.145-0.653-4.145-1.455v-86.761
	c0-0.802,1.855-1.453,4.145-1.453l0,0c2.291,0,4.146,0.651,4.146,1.453V306.876z"/>
<path fill="#231F20" d="M594.656,306.876c0,0.802-1.855,1.455-4.146,1.455l0,0c-2.29,0-4.146-0.653-4.146-1.455v-86.761
	c0-0.802,1.856-1.453,4.146-1.453l0,0c2.29,0,4.146,0.651,4.146,1.453V306.876z"/>
<path fill="#231F20" d="M631.57,306.876c0,0.802-1.855,1.455-4.146,1.455l0,0c-2.29,0-4.145-0.653-4.145-1.455v-86.761
	c0-0.802,1.854-1.453,4.145-1.453l0,0c2.291,0,4.146,0.651,4.146,1.453V306.876z"/>
<path fill="#231F20" d="M631.57,198.318c0,0.72-1.855,1.306-4.146,1.306l0,0c-2.29,0-4.145-0.586-4.145-1.306v-77.844
	c0-0.723,1.854-1.305,4.145-1.305l0,0c2.291,0,4.146,0.584,4.146,1.305V198.318z"/>
<path fill="#231F20" d="M594.853,198.318c0,0.72-1.856,1.306-4.146,1.306l0,0c-2.29,0-4.146-0.586-4.146-1.306v-77.844
	c0-0.723,1.855-1.305,4.146-1.305l0,0c2.29,0,4.146,0.584,4.146,1.305V198.318z"/>
<path fill="#231F20" d="M661.773,309.246c0,0.804-1.855,1.456-4.146,1.456l0,0c-2.29,0-4.146-0.652-4.146-1.456v-86.759
	c0-0.804,1.855-1.454,4.146-1.454l0,0c2.29,0,4.146,0.65,4.146,1.454V309.246z"/>
<path fill="#231F20" d="M694.415,307.758c0,1.627-1.856,2.947-4.146,2.947l0,0c-2.29,0-4.146-1.32-4.146-2.947V132.108
	c0-1.628,1.855-2.947,4.146-2.947l0,0c2.29,0,4.146,1.319,4.146,2.947V307.758z"/>
<path fill="#FFFFFF" d="M480.358,318.124v-19.022c0-1.321,11.646-2.391,26.009-2.391H713.35c14.358,0,26.006,1.071,26.006,2.391
	v19.022c0,1.318-11.646,2.391-26.006,2.391H506.367"/>
</svg>
