<?xml version="1.0" encoding="utf-8"?>
<!-- Generator: Adobe Illustrator 14.0.0, SVG Export Plug-In . SVG Version: 6.00 Build 43363)  -->
<!DOCTYPE svg PUBLIC "-//W3C//DTD SVG 1.1//EN" "http://www.w3.org/Graphics/SVG/1.1/DTD/svg11.dtd">
<svg version="1.1" xmlns="http://www.w3.org/2000/svg" xmlns:xlink="http://www.w3.org/1999/xlink" x="0px" y="0px" width="100px"
	 height="100px" viewBox="0 0 100 100" enable-background="new 0 0 100 100" xml:space="preserve">
<g id="Layer_1">
</g>
<g id="Layer_2">
	<path fill="#010101" d="M24.413,36.514l2.384,49.534c0,2.635,2.135,4.771,4.77,4.771H69.92c2.635,0,4.771-2.137,4.771-4.771
		l2.384-49.534H24.413z"/>
	<g>
		<path fill="#010101" d="M74.072,13.563l-10.451,1.994l-0.909-4.774c-0.495-2.587-2.992-4.285-5.579-3.791l-21.141,4.032
			c-2.587,0.493-4.285,2.991-3.792,5.578l0.91,4.773l-10.216,1.949c-2.587,0.493-5.456,3.214-4.962,5.801l0.943,4.941l62.653-11.95
			l-0.942-4.94C80.093,14.588,76.658,13.07,74.072,13.563z M37.342,17.886c-0.247-1.293,0.601-2.542,1.896-2.789l16.377-3.124
			c1.294-0.247,2.542,0.602,2.789,1.896l0.493,2.589l-21.062,4.017L37.342,17.886z"/>
	</g>
	<g>
		<path fill="#FFFFFF" d="M43.416,63.645l1.595,0.976c0.27,0,0.406-0.111,0.406-0.332c0-0.143-0.064-0.342-0.19-0.596l-3.526-6.623
			l-7.812,0.19c-0.35,0.019-0.524,0.201-0.524,0.548c0,0.081,0.11,0.191,0.333,0.334l1.62,0.977l-1.716,2.668
			c-0.476,0.763-0.713,1.392-0.713,1.883c0,0.444,0.157,0.946,0.476,1.5l5.311,9.267c-0.127-0.589-0.189-1.145-0.189-1.671
			c0-0.934,0.292-1.855,0.88-2.76L43.416,63.645L43.416,63.645z"/>
		<path fill="#FFFFFF" d="M45.464,58.238l4.382-6.788c-1.636-3.73-3.375-5.599-5.216-5.599c-1.112,0-1.856,0.311-2.238,0.93
			l-4.146,6.622L45.464,58.238L45.464,58.238z"/>
		<path fill="#FFFFFF" d="M41.892,76.625h8.455v-8.788h-8.145c-1.001,1.429-1.629,2.398-1.882,2.906
			c-0.414,0.81-0.619,1.636-0.619,2.476C39.701,75.491,40.43,76.625,41.892,76.625L41.892,76.625z"/>
		<path fill="#FFFFFF" d="M59.304,56.618l3.762-6.337c0.127-0.221,0.19-0.451,0.19-0.689c0-0.285-0.095-0.429-0.285-0.429
			c0.03,0-0.095,0.048-0.382,0.144l-1.714,0.786l-1.571-3.121c-0.7-1.397-2.096-2.096-4.191-2.096h-9.791
			c1.191,0.365,2,0.723,2.429,1.072c1.001,0.795,2.024,2.287,3.073,4.478l1.953,4.098l-1.454,0.69
			c-0.143,0.063-0.214,0.19-0.214,0.382c0,0.238,0.15,0.373,0.453,0.403L59.304,56.618L59.304,56.618z"/>
		<path fill="#FFFFFF" d="M63.065,75.315l5.479-9.957c-0.81,0.923-1.691,1.544-2.645,1.859c-0.763,0.255-1.852,0.381-3.265,0.381
			h-6.097v-1.263c0-0.492-0.119-0.739-0.357-0.739c-0.175,0-0.303,0.066-0.381,0.191l-3.858,6.691l4.002,6.147
			c0.302,0.462,0.563,0.642,0.786,0.547c0.221-0.062,0.334-0.182,0.334-0.355v-2.097h3.382
			C61.686,76.722,62.557,76.254,63.065,75.315L63.065,75.315z"/>
		<path fill="#FFFFFF" d="M60.685,66.336h3.646c0.872,0,1.777-0.38,2.712-1.142c1.002-0.796,1.503-1.638,1.503-2.527
			c0-0.412-0.137-0.816-0.407-1.215l-4.333-6.62l-7.456,4.336L60.685,66.336L60.685,66.336z"/>
	</g>
</g>
</svg>
