<?xml version="1.0" encoding="utf-8"?>
<!-- Generator: Adobe Illustrator 14.0.0, SVG Export Plug-In  -->
<!DOCTYPE svg PUBLIC "-//W3C//DTD SVG 1.1//EN" "http://www.w3.org/Graphics/SVG/1.1/DTD/svg11.dtd" [
	<!ENTITY ns_flows "http://ns.adobe.com/Flows/1.0/">
]>
<svg version="1.1"
	 xmlns="http://www.w3.org/2000/svg" xmlns:xlink="http://www.w3.org/1999/xlink" xmlns:a="http://ns.adobe.com/AdobeSVGViewerExtensions/3.0/"
	 x="0px" y="0px" width="100px" height="100px" viewBox="-7.464 -6.656 100 100" enable-background="new -7.464 -6.656 100 100"
	 xml:space="preserve">
<defs>
</defs>
<path fill="#231F20" d="M87.142,78.392c0,4.833-3.918,8.751-8.751,8.751H8.75c-4.832,0-8.75-3.918-8.75-8.751V8.75
	C0,3.918,3.918,0,8.75,0h69.641c4.833,0,8.751,3.918,8.751,8.75V78.392z"/>
<path fill="#FFFFFF" d="M43.44,38.957c6.306,0,11.418,5.112,11.418,11.418S49.746,61.794,43.44,61.794
	c-6.307,0-11.419-5.112-11.419-11.419S37.133,38.957,43.44,38.957z"/>
<path fill="#FFFFFF" d="M25.04,87.687h35.818v-4.096l8.627-9.965c0.123-0.141,0.209-0.302,0.266-0.474
	c0.253-0.183,0.485-0.395,0.695-0.638c1.047-1.207,1.273-2.879,0.773-4.468V48.536c0-0.17-0.038-0.333-0.107-0.485
	c0.07-0.277,0.107-0.562,0.107-0.855c0-2.425-2.551-4.39-5.698-4.39c-3.148,0-5.7,1.965-5.7,4.39c0,0.292,0.037,0.578,0.108,0.855
	c-0.068,0.152-0.108,0.315-0.108,0.485v18.836l-1.332,1.539c-1.322-1.229-3.088-1.986-5.035-1.986H32.445
	c-1.802,0-3.452,0.645-4.734,1.714l-0.389-0.449V49.353c0-0.17-0.04-0.332-0.109-0.484c0.07-0.277,0.109-0.563,0.109-0.855
	c0-2.426-2.553-4.391-5.701-4.391c-3.147,0-5.698,1.965-5.698,4.391c0,0.292,0.038,0.578,0.108,0.855
	c-0.07,0.152-0.108,0.315-0.108,0.484v19.512c-0.5,1.589-0.272,3.261,0.773,4.468c0.21,0.243,0.443,0.455,0.695,0.639
	c0.058,0.172,0.144,0.332,0.266,0.474l7.384,8.528v4.714H25.04L25.04,87.687z"/>
</svg>
