<?xml version="1.0" encoding="utf-8"?>
<!-- Generator: Adobe Illustrator 14.0.0, SVG Export Plug-In . SVG Version: 6.00 Build 43363)  -->
<!DOCTYPE svg PUBLIC "-//W3C//DTD SVG 1.1//EN" "http://www.w3.org/Graphics/SVG/1.1/DTD/svg11.dtd">
<svg version="1.1" id="Layer_1" xmlns="http://www.w3.org/2000/svg" xmlns:xlink="http://www.w3.org/1999/xlink" x="0px" y="0px"
	 width="792px" height="612px" viewBox="0 0 792 612" enable-background="new 0 0 792 612" xml:space="preserve">
<rect x="289.558" y="134.208" fill="#FFFFFF" stroke="#000000" stroke-width="6" width="212.117" height="212.117"/>
<rect x="513.592" y="134.208" fill="#FFFFFF" stroke="#000000" stroke-width="6" width="212.116" height="212.117"/>
<rect x="66.916" y="133.612" fill="#FFFFFF" stroke="#000000" stroke-width="6" width="212.117" height="212.117"/>
<polygon fill="#010101" points="456.981,242.435 383.851,169.364 383.851,202.931 352.679,202.931 352.679,242.435 352.679,281.938 
	383.851,281.938 383.851,315.504 "/>
<g>
	<g>
		<path fill="#010101" d="M630.642,253.339h-21.38c-3.428,0-6.207,2.776-6.207,6.203v29.095c0,3.426,2.779,6.205,6.207,6.205h0.033
			v20.608c0,3.426,2.701,6.205,6.034,6.205h9.246c3.329,0,6.032-2.779,6.032-6.205v-20.608h0.034c3.425,0,6.204-2.778,6.204-6.205
			v-29.095C636.844,256.115,634.066,253.339,630.642,253.339z"/>
		<circle fill="#010101" cx="619.951" cy="241.212" r="10.126"/>
	</g>
	<g>
		<path fill="#010101" d="M688.239,226.603H662.05c-4.2,0-7.601,3.403-7.601,7.603v35.641c0,4.199,3.4,7.603,7.601,7.603h0.042
			v25.244c0,4.198,3.311,7.601,7.389,7.601h11.328c4.08,0,7.388-3.403,7.388-7.601v-25.246h0.042c4.199,0,7.602-3.402,7.602-7.603
			v-35.643C695.84,230.006,692.438,226.603,688.239,226.603z"/>
		<circle fill="#010101" cx="675.146" cy="211.75" r="12.406"/>
	</g>
	<g>
		<path fill="#010101" d="M578.212,226.603h-26.191c-4.198,0-7.601,3.403-7.601,7.599v35.643c0,4.201,3.402,7.603,7.601,7.603h0.043
			v25.244c0,4.2,3.312,7.6,7.388,7.6h11.329c4.08,0,7.387-3.4,7.387-7.6v-25.244h0.045c4.195,0,7.599-3.402,7.599-7.603v-35.643
			C585.81,230.006,582.407,226.603,578.212,226.603z"/>
		<path fill="#010101" d="M565.113,199.347c6.853,0,12.406,5.553,12.406,12.403c0,6.849-5.554,12.404-12.406,12.404
			c-6.847,0-12.4-5.555-12.4-12.404C552.713,204.9,558.267,199.347,565.113,199.347z"/>
	</g>
</g>
<g>
	<g>
		<g>
			<path fill="#FFFFFF" d="M171.027,327.738c-3.975,0-7.208-3.287-7.208-7.328v-11.788c-2.536-1.157-4.294-3.709-4.294-6.665
				v-20.023c0-4.041,3.287-7.327,7.327-7.327h14.713c4.038,0,7.325,3.286,7.328,7.323v20.026c0,2.958-1.763,5.514-4.293,6.67v11.783
				c0,4.041-3.233,7.328-7.208,7.328H171.027z"/>
			<path fill="#010101" d="M181.564,277.665h-14.713c-2.357,0-4.27,1.911-4.27,4.27v20.023c0,2.358,1.913,4.27,4.27,4.27h0.024
				v14.183c0,2.358,1.857,4.271,4.151,4.271h6.364c2.291,0,4.15-1.913,4.15-4.271v-14.183h0.023c2.357,0,4.271-1.911,4.271-4.27
				v-20.023C185.833,279.575,183.922,277.665,181.564,277.665z"/>
			<path fill="#FFFFFF" d="M174.208,279.345c-5.528,0-10.026-4.498-10.026-10.025c0-5.529,4.498-10.027,10.026-10.027
				c5.528,0,10.026,4.498,10.026,10.027C184.234,274.847,179.736,279.345,174.208,279.345L174.208,279.345z"/>
			<circle fill="#010101" cx="174.208" cy="269.318" r="6.969"/>
		</g>
		<g>
			<path fill="#FFFFFF" d="M198.004,322.677c-3.646,0-6.613-3.014-6.613-6.717v-9.825c-2.186-1.112-3.681-3.378-3.681-5.988v-17.158
				c0-3.704,3.013-6.716,6.716-6.716h12.609c3.702,0,6.715,3.013,6.715,6.715v17.159c0,2.611-1.498,4.878-3.679,5.99v9.824
				c0,3.704-2.967,6.717-6.613,6.717H198.004z"/>
			<path fill="#010101" d="M207.036,279.33h-12.609c-2.021,0-3.659,1.638-3.659,3.659v17.158c0,2.021,1.637,3.66,3.659,3.66h0.021
				v12.152c0,2.021,1.592,3.66,3.556,3.66h5.455c1.963,0,3.556-1.638,3.556-3.66v-12.153h0.018c2.023,0,3.661-1.639,3.661-3.661
				v-17.159C210.694,280.967,209.057,279.33,207.036,279.33z"/>
			<path fill="#FFFFFF" d="M200.731,281.208c-4.979,0-9.029-4.051-9.029-9.029s4.05-9.029,9.029-9.029s9.029,4.051,9.029,9.029
				S205.71,281.208,200.731,281.208L200.731,281.208z"/>
			<circle fill="#010101" cx="200.731" cy="272.178" r="5.972"/>
		</g>
		<g>
			<path fill="#FFFFFF" d="M144.958,322.675c-3.647,0-6.614-3.012-6.614-6.716v-9.825c-2.186-1.113-3.68-3.379-3.68-5.988v-17.159
				c0-3.702,3.013-6.715,6.716-6.715h12.608c3.701,0,6.714,3.011,6.717,6.713v17.161c0,2.612-1.499,4.88-3.68,5.991v9.822
				c0,3.704-2.967,6.716-6.614,6.716H144.958z"/>
			<path fill="#010101" d="M153.989,279.33h-12.608c-2.02,0-3.659,1.638-3.659,3.658v17.159c0,2.022,1.639,3.661,3.659,3.661h0.021
				v12.152c0,2.021,1.593,3.659,3.556,3.659h5.455c1.963,0,3.556-1.638,3.556-3.659v-12.152h0.02c2.021,0,3.66-1.639,3.66-3.661
				v-17.159C157.647,280.967,156.01,279.33,153.989,279.33z"/>
			<path fill="#FFFFFF" d="M147.685,281.207c-4.978,0-9.027-4.05-9.027-9.028c0-4.978,4.05-9.028,9.027-9.028
				c4.979,0,9.03,4.05,9.03,9.028C156.714,277.157,152.663,281.207,147.685,281.207L147.685,281.207z"/>
			<circle fill="#010101" cx="147.685" cy="272.179" r="5.971"/>
		</g>
	</g>
	<g>
		<g>
			<path fill="#010101" d="M181.564,277.665h-14.713c-2.357,0-4.27,1.911-4.27,4.27v20.023c0,2.358,1.913,4.27,4.27,4.27h0.024
				v14.183c0,2.358,1.857,4.271,4.151,4.271h6.364c2.291,0,4.15-1.913,4.15-4.271v-14.183h0.023c2.357,0,4.271-1.911,4.271-4.27
				v-20.023C185.833,279.575,183.922,277.665,181.564,277.665z"/>
			<circle fill="#010101" cx="174.208" cy="269.318" r="6.969"/>
		</g>
		<g>
			<path fill="#010101" d="M207.036,279.33h-12.609c-2.021,0-3.659,1.638-3.659,3.659v17.158c0,2.021,1.637,3.66,3.659,3.66h0.021
				v12.152c0,2.021,1.592,3.66,3.556,3.66h5.455c1.963,0,3.556-1.638,3.556-3.66v-12.153h0.018c2.023,0,3.661-1.639,3.661-3.661
				v-17.159C210.694,280.967,209.057,279.33,207.036,279.33z"/>
			<circle fill="#010101" cx="200.731" cy="272.178" r="5.972"/>
		</g>
		<g>
			<path fill="#010101" d="M153.989,279.33h-12.608c-2.02,0-3.659,1.638-3.659,3.658v17.159c0,2.022,1.639,3.661,3.659,3.661h0.021
				v12.152c0,2.021,1.593,3.659,3.556,3.659h5.455c1.963,0,3.556-1.638,3.556-3.659v-12.152h0.02c2.021,0,3.66-1.639,3.66-3.661
				v-17.159C157.647,280.967,156.01,279.33,153.989,279.33z"/>
			<circle fill="#010101" cx="147.685" cy="272.179" r="5.971"/>
		</g>
	</g>
	<g>
		<path fill="#FFFFFF" d="M176.324,283.296c-0.522,0.743-1.383,1.231-2.359,1.231c-0.977,0-1.837-0.489-2.359-1.231l-1.081,12.327
			l3.551,3.107l3.329-3.107L176.324,283.296z"/>
		<path fill="#FFFFFF" d="M173.965,283.862c-0.719,0-1.397-0.354-1.813-0.948c-0.266-0.379-0.406-0.817-0.406-1.272
			c0-1.224,0.996-2.219,2.22-2.219c1.223,0,2.219,0.995,2.219,2.219c0,0.455-0.14,0.893-0.405,1.272
			C175.362,283.508,174.683,283.862,173.965,283.862L173.965,283.862z"/>
	</g>
	<g>
		<path fill="#FFFFFF" d="M202.855,283.348c-0.418,0.595-1.108,0.988-1.891,0.988c-0.783,0-1.473-0.393-1.891-0.989l-0.867,9.882
			l2.848,2.49l2.668-2.49L202.855,283.348z"/>
		<path fill="#FFFFFF" d="M200.965,283.801c-0.577,0-1.12-0.284-1.454-0.76c-0.212-0.302-0.326-0.655-0.326-1.02
			c0-0.981,0.798-1.779,1.78-1.779c0.981,0,1.779,0.797,1.779,1.779c0,0.365-0.113,0.718-0.327,1.02
			C202.084,283.517,201.542,283.801,200.965,283.801L200.965,283.801z"/>
	</g>
	<g>
		<path fill="#FFFFFF" d="M149.586,283.348c-0.418,0.595-1.107,0.988-1.891,0.988c-0.783,0-1.472-0.393-1.891-0.989l-0.867,9.882
			l2.847,2.49l2.667-2.49L149.586,283.348z"/>
		<path fill="#FFFFFF" d="M147.695,283.801c-0.576,0-1.121-0.284-1.454-0.76c-0.212-0.302-0.325-0.655-0.325-1.02
			c0-0.981,0.798-1.779,1.779-1.779c0.982,0,1.779,0.797,1.779,1.779c0,0.365-0.113,0.718-0.326,1.02
			C148.815,283.517,148.271,283.801,147.695,283.801L147.695,283.801z"/>
	</g>
</g>
<path fill="#FFFFFF" stroke="#000000" stroke-width="6.6733" d="M225.246-470.514c-24.319,0-44.111,19.796-44.111,44.127v248.254
	c0,24.341,19.792,44.127,44.111,44.127h248.289c24.329,0,44.132-19.786,44.132-44.127v-248.254
	c0-24.331-19.798-44.127-44.132-44.127H225.246z"/>
<g>
	<path fill="#010101" d="M492.779-354.25v-9.522h-6.289l-43.711-26.522l-43.713,26.521h-6.287v9.522h2.858v40.951h-2.858v9.523h100
		v-9.523h-2.857v-40.95H492.779z M442.779-379.155l25.354,15.384h-50.707L442.779-379.155z M423.732-313.298H405.16v-40.951h18.572
		V-313.298z M452.303-313.298h-19.046v-40.951h19.046V-313.298z M480.398-313.298h-18.572v-40.951h18.572V-313.298z"/>
</g>
<g>
	<path fill="#010101" d="M312.78-354.25v-9.522h-6.289l-43.711-26.522l-43.713,26.521h-6.287v9.522h2.858v40.951h-2.858v9.523h100
		v-9.523h-2.857v-40.95H312.78z M262.78-379.155l25.354,15.384h-50.708L262.78-379.155z M243.733-313.298h-18.572v-40.951h18.572
		V-313.298z M272.303-313.298h-19.046v-40.951h19.046V-313.298z M300.399-313.298h-18.572v-40.951h18.572V-313.298z"/>
</g>
<polygon fill="#010101" points="371.314,-285.265 348.185,-308.375 348.185,-297.758 338.327,-297.758 338.327,-285.265 
	338.327,-272.771 348.185,-272.771 348.185,-262.154 "/>
<g>
	<g>
		<path fill="#010101" d="M452.195-257.1h-20.164c-3.23,0-5.852,2.618-5.852,5.85v27.44c0,3.231,2.621,5.852,5.852,5.852h0.033
			v19.436c0,3.231,2.546,5.852,5.689,5.852h8.721c3.141,0,5.688-2.62,5.688-5.852v-19.436h0.032c3.23,0,5.852-2.62,5.852-5.852
			v-27.44C458.045-254.481,455.426-257.1,452.195-257.1z"/>
		<circle fill="#010101" cx="442.113" cy="-268.536" r="9.55"/>
	</g>
	<g>
		<path fill="#010101" d="M487.1-254.818h-17.278c-2.771,0-5.015,2.245-5.015,5.014v23.514c0,2.771,2.244,5.016,5.015,5.016h0.028
			v16.654c0,2.77,2.182,5.014,4.873,5.014h7.475c2.691,0,4.874-2.244,4.874-5.014v-16.655h0.026c2.771,0,5.016-2.245,5.016-5.016
			v-23.514C492.113-252.573,489.869-254.818,487.1-254.818z"/>
		<circle fill="#010101" cx="478.461" cy="-264.617" r="8.184"/>
	</g>
	<g>
		<path fill="#010101" d="M414.405-254.818h-17.278c-2.769,0-5.014,2.245-5.014,5.013v23.514c0,2.771,2.245,5.016,5.014,5.016h0.028
			v16.654c0,2.77,2.185,5.014,4.874,5.014h7.475c2.691,0,4.873-2.244,4.873-5.014v-16.654h0.028c2.769,0,5.015-2.245,5.015-5.016
			v-23.514C419.418-252.573,417.174-254.818,414.405-254.818z"/>
		<circle fill="#010101" cx="405.766" cy="-264.617" r="8.183"/>
	</g>
</g>
<g>
	<g>
		<path fill="#010101" d="M271.195-259.1h-20.164c-3.231,0-5.851,2.618-5.851,5.85v27.44c0,3.231,2.62,5.852,5.851,5.852h0.033
			v19.436c0,3.231,2.546,5.852,5.689,5.852h8.722c3.14,0,5.688-2.62,5.688-5.852v-19.436h0.032c3.231,0,5.851-2.62,5.851-5.852
			v-27.44C277.045-256.481,274.426-259.1,271.195-259.1z"/>
		<circle fill="#010101" cx="261.113" cy="-270.536" r="9.55"/>
	</g>
	<g>
		<path fill="#010101" d="M306.099-256.818h-17.278c-2.771,0-5.014,2.245-5.014,5.014v23.514c0,2.771,2.243,5.016,5.014,5.016h0.028
			v16.654c0,2.77,2.182,5.014,4.873,5.014h7.475c2.691,0,4.874-2.244,4.874-5.014v-16.655h0.027c2.771,0,5.015-2.245,5.015-5.016
			v-23.514C311.113-254.573,308.869-256.818,306.099-256.818z"/>
		<circle fill="#010101" cx="297.46" cy="-266.617" r="8.184"/>
	</g>
	<g>
		<path fill="#010101" d="M233.405-256.818h-17.278c-2.769,0-5.014,2.245-5.014,5.013v23.514c0,2.771,2.245,5.016,5.014,5.016h0.028
			v16.654c0,2.77,2.184,5.014,4.874,5.014h7.474c2.692,0,4.874-2.244,4.874-5.014v-16.654h0.028c2.769,0,5.014-2.245,5.014-5.016
			v-23.514C238.418-254.573,236.173-256.818,233.405-256.818z"/>
		<circle fill="#010101" cx="224.766" cy="-266.617" r="8.183"/>
	</g>
</g>
<g>
	<path fill="#FFFFFF" d="M264.013-251.382c-0.715,1.018-1.895,1.688-3.233,1.688s-2.517-0.669-3.233-1.688l-1.481,16.894
		l4.867,4.257l4.562-4.257L264.013-251.382z"/>
	<path fill="#FFFFFF" d="M260.78-250.607c-0.984,0-1.915-0.485-2.485-1.3c-0.364-0.517-0.556-1.12-0.556-1.742
		c0-1.678,1.365-3.042,3.041-3.042c1.678,0,3.042,1.364,3.042,3.042c0,0.622-0.192,1.225-0.556,1.742
		C262.694-251.093,261.765-250.607,260.78-250.607L260.78-250.607z"/>
</g>
<g>
	<path fill="#FFFFFF" d="M300.371-251.311c-0.573,0.816-1.519,1.353-2.591,1.353s-2.018-0.537-2.591-1.353l-1.188,13.542
		l3.901,3.413l3.657-3.413L300.371-251.311z"/>
	<path fill="#FFFFFF" d="M297.78-250.689c-0.789,0-1.535-0.389-1.992-1.042c-0.292-0.415-0.445-0.897-0.445-1.396
		c0-1.345,1.094-2.438,2.438-2.438c1.345,0,2.438,1.093,2.438,2.438c0,0.499-0.154,0.981-0.446,1.396
		C299.314-251.079,298.569-250.689,297.78-250.689L297.78-250.689z"/>
</g>
<g>
	<path fill="#FFFFFF" d="M227.371-251.311c-0.573,0.816-1.519,1.353-2.591,1.353s-2.018-0.537-2.591-1.353l-1.188,13.542
		l3.901,3.413l3.657-3.413L227.371-251.311z"/>
	<path fill="#FFFFFF" d="M224.78-250.689c-0.789,0-1.535-0.389-1.992-1.042c-0.292-0.415-0.445-0.897-0.445-1.396
		c0-1.345,1.094-2.438,2.438-2.438c1.345,0,2.438,1.093,2.438,2.438c0,0.499-0.154,0.981-0.446,1.396
		C226.314-251.079,225.569-250.689,224.78-250.689L224.78-250.689z"/>
</g>
<text transform="matrix(1 0 0 1 71.1016 442.7207)" font-family="'Oswald'" font-size="62.474">MOVE YOUR MONEY.</text>
<g>
	<g>
		<path fill="#010101" d="M652.77,172.151v-5.917h-3.91l-27.169-16.486l-27.17,16.485h-3.91v5.918h1.778v25.454h-1.778v5.919h62.159
			v-5.919h-1.777v-25.454H652.77z M621.69,156.671l15.759,9.562h-31.519L621.69,156.671z M609.852,197.606h-11.543v-25.455h11.543
			V197.606z M627.61,197.606h-11.84v-25.455h11.84V197.606z M645.073,197.606H633.53v-25.455h11.543V197.606z"/>
	</g>
	<rect x="598.104" y="172.101" fill="#FFFFFF" width="46.761" height="25.614"/>
	<rect x="631.458" y="170.503" width="6.541" height="29.554"/>
	<rect x="604.643" y="170.512" width="6.54" height="28.751"/>
	<g>
		<g>
			<path d="M620.495,194.304c-0.191,0-0.345-0.156-0.345-0.346v-1.516c-0.813-0.126-1.494-0.329-2.03-0.604
				c-0.619-0.32-1.162-0.838-1.608-1.541c-0.442-0.699-0.702-1.559-0.774-2.553c-0.011-0.175,0.109-0.333,0.28-0.364l1.828-0.343
				c0.021-0.004,0.044-0.007,0.064-0.007c0.07,0,0.141,0.023,0.201,0.065c0.076,0.054,0.127,0.137,0.141,0.231
				c0.132,0.911,0.361,1.58,0.679,1.989c0.357,0.451,0.758,0.74,1.22,0.875V185.1c-0.691-0.163-1.403-0.447-2.118-0.847
				c-0.632-0.354-1.129-0.852-1.471-1.479c-0.341-0.619-0.511-1.332-0.511-2.113c0-1.391,0.501-2.536,1.49-3.402
				c0.609-0.535,1.485-0.883,2.609-1.036v-0.562c0-0.191,0.153-0.346,0.345-0.346h1.07c0.192,0,0.346,0.155,0.346,0.346v0.562
				c0.979,0.137,1.781,0.462,2.391,0.971c0.856,0.713,1.38,1.7,1.555,2.932c0.027,0.188-0.104,0.362-0.289,0.392l-1.879,0.282
				c-0.019,0.002-0.035,0.006-0.053,0.006c-0.168,0-0.315-0.124-0.342-0.295c-0.097-0.644-0.296-1.136-0.588-1.462
				c-0.205-0.23-0.472-0.407-0.795-0.527v4.515c0.8,0.206,1.328,0.364,1.608,0.487c0.603,0.264,1.105,0.594,1.492,0.981
				c0.39,0.391,0.692,0.859,0.899,1.392c0.208,0.528,0.312,1.108,0.312,1.722c0,1.344-0.438,2.484-1.297,3.387
				c-0.792,0.831-1.804,1.313-3.016,1.437v1.516c0,0.19-0.153,0.346-0.346,0.346H620.495z M621.911,190.186
				c0.453-0.124,0.829-0.364,1.146-0.728c0.407-0.464,0.604-1.026,0.604-1.72c0-0.575-0.138-1.038-0.413-1.373
				c-0.229-0.284-0.681-0.555-1.338-0.807V190.186z M620.15,178.472c-0.439,0.125-0.79,0.339-1.068,0.649
				c-0.352,0.396-0.523,0.852-0.523,1.396c0,0.542,0.146,0.979,0.44,1.334c0.24,0.288,0.624,0.536,1.151,0.738V178.472z"/>
			<path d="M620.495,193.958v-1.816c-0.908-0.116-1.649-0.319-2.215-0.613c-0.571-0.292-1.062-0.765-1.476-1.417
				c-0.413-0.653-0.655-1.452-0.723-2.393l1.828-0.344c0.141,0.976,0.389,1.692,0.746,2.151c0.512,0.645,1.125,1.006,1.839,1.082
				v-5.787c-0.747-0.14-1.512-0.431-2.293-0.869c-0.578-0.323-1.024-0.77-1.337-1.342c-0.313-0.573-0.468-1.222-0.468-1.948
				c0-1.293,0.455-2.34,1.371-3.141c0.614-0.54,1.521-0.868,2.727-0.99v-0.868h1.07v0.868c1.057,0.102,1.895,0.412,2.515,0.929
				c0.793,0.661,1.273,1.565,1.434,2.716l-1.878,0.284c-0.109-0.714-0.332-1.26-0.673-1.64c-0.34-0.382-0.807-0.632-1.397-0.754
				v5.24c0.916,0.229,1.52,0.408,1.817,0.536c0.567,0.25,1.028,0.554,1.384,0.909c0.357,0.357,0.632,0.78,0.823,1.271
				c0.19,0.491,0.287,1.024,0.287,1.597c0,1.258-0.401,2.309-1.202,3.149c-0.801,0.843-1.836,1.293-3.109,1.354v1.837H620.495z
				 M620.495,178.044c-0.708,0.107-1.262,0.391-1.67,0.849c-0.409,0.457-0.612,0.999-0.612,1.625c0,0.62,0.173,1.138,0.519,1.556
				c0.347,0.418,0.937,0.752,1.764,1V178.044z M621.565,190.606c0.706-0.087,1.292-0.394,1.753-0.92
				c0.461-0.525,0.689-1.175,0.689-1.948c0-0.659-0.161-1.191-0.488-1.591s-0.978-0.758-1.954-1.075V190.606z"/>
		</g>
	</g>
</g>
<g>
	<g>
		<path fill="#010101" d="M230.871,197.063V186.28h-7.122l-49.507-30.039l-49.509,30.037h-7.121v10.785h3.237v46.381h-3.237v10.785
			h113.258v-10.785h-3.236v-46.381H230.871z M174.242,168.856l28.714,17.424h-57.43L174.242,168.856z M152.67,243.445h-21.035
			v-46.381h21.035V243.445z M185.027,243.445h-21.57v-46.381h21.57V243.445z M216.849,243.445h-21.035v-46.381h21.035V243.445z"/>
	</g>
	<rect x="131.265" y="196.969" fill="#FFFFFF" width="85.204" height="46.673"/>
	<rect x="192.04" y="194.586" width="11.917" height="51.837"/>
	<rect x="143.182" y="194.388" width="11.917" height="52.433"/>
	<g>
		<g>
			<path d="M172.063,237.428c-0.348,0-0.629-0.283-0.629-0.629v-2.765c-1.48-0.229-2.72-0.598-3.698-1.102
				c-1.13-0.583-2.116-1.525-2.929-2.808c-0.808-1.273-1.283-2.839-1.412-4.652c-0.022-0.318,0.197-0.605,0.512-0.663l3.329-0.626
				c0.039-0.007,0.078-0.013,0.117-0.013c0.13,0,0.258,0.041,0.367,0.119c0.139,0.098,0.232,0.251,0.257,0.422
				c0.241,1.661,0.657,2.878,1.234,3.624c0.653,0.822,1.386,1.349,2.223,1.594v-9.272c-1.26-0.296-2.556-0.815-3.857-1.544
				c-1.154-0.645-2.057-1.551-2.681-2.695c-0.619-1.128-0.932-2.426-0.932-3.852c0-2.534,0.914-4.619,2.717-6.197
				c1.11-0.975,2.708-1.609,4.753-1.888v-1.022c0-0.349,0.281-0.63,0.629-0.63h1.952c0.349,0,0.629,0.282,0.629,0.63v1.021
				c1.783,0.25,3.247,0.844,4.355,1.77c1.563,1.299,2.517,3.098,2.833,5.343c0.049,0.342-0.188,0.66-0.53,0.713l-3.422,0.515
				c-0.033,0.005-0.064,0.009-0.095,0.009c-0.307,0-0.576-0.225-0.623-0.536c-0.178-1.172-0.538-2.07-1.071-2.665
				c-0.373-0.42-0.858-0.741-1.447-0.96v8.227c1.457,0.375,2.417,0.664,2.932,0.888c1.096,0.481,2.01,1.083,2.714,1.787
				c0.712,0.713,1.263,1.567,1.642,2.536c0.377,0.964,0.567,2.019,0.567,3.137c0,2.449-0.795,4.527-2.363,6.174
				c-1.441,1.512-3.286,2.391-5.493,2.617v2.765c0,0.346-0.281,0.629-0.629,0.629H172.063z M174.645,229.925
				c0.82-0.228,1.506-0.666,2.087-1.328c0.743-0.845,1.104-1.871,1.104-3.134c0-1.048-0.251-1.891-0.75-2.501
				c-0.422-0.518-1.242-1.011-2.441-1.469V229.925z M171.435,208.579c-0.8,0.229-1.441,0.62-1.945,1.185
				c-0.643,0.722-0.954,1.553-0.954,2.543c0,0.988,0.262,1.782,0.801,2.431c0.436,0.524,1.138,0.975,2.098,1.344V208.579z"/>
			<path d="M172.063,236.798v-3.311c-1.654-0.211-3.002-0.58-4.038-1.116c-1.038-0.531-1.931-1.395-2.687-2.583
				c-0.753-1.19-1.193-2.645-1.316-4.36l3.33-0.625c0.258,1.776,0.712,3.083,1.362,3.919c0.933,1.175,2.049,1.834,3.349,1.969
				v-10.542c-1.36-0.258-2.753-0.786-4.177-1.583c-1.054-0.589-1.867-1.404-2.437-2.447c-0.572-1.043-0.854-2.226-0.854-3.551
				c0-2.355,0.832-4.263,2.5-5.721c1.118-0.983,2.772-1.582,4.968-1.805v-1.581h1.952v1.581c1.923,0.185,3.451,0.75,4.581,1.693
				c1.446,1.203,2.317,2.852,2.612,4.948l-3.422,0.518c-0.198-1.301-0.605-2.297-1.225-2.989c-0.619-0.695-1.469-1.15-2.546-1.373
				v9.549c1.666,0.418,2.77,0.743,3.311,0.976c1.032,0.455,1.872,1.007,2.522,1.656c0.649,0.651,1.148,1.423,1.499,2.318
				c0.35,0.895,0.524,1.866,0.524,2.909c0,2.292-0.731,4.206-2.19,5.739c-1.459,1.534-3.348,2.356-5.665,2.466v3.35H172.063z
				 M172.063,207.8c-1.288,0.196-2.301,0.712-3.045,1.545c-0.742,0.835-1.113,1.821-1.113,2.962c0,1.129,0.315,2.073,0.947,2.832
				c0.631,0.763,1.703,1.371,3.211,1.823V207.8z M174.016,230.689c1.287-0.159,2.35-0.718,3.191-1.676
				c0.84-0.956,1.26-2.141,1.26-3.549c0-1.203-0.297-2.17-0.892-2.899c-0.596-0.729-1.782-1.382-3.559-1.959V230.689z"/>
		</g>
	</g>
</g>
<g>
	<g>
		<text transform="matrix(1 0 0 1 668.6816 460.6709)" fill="#010101" font-family="'Oswald'" font-size="12">OCCUPY</text>
	</g>
	<g>
		<path fill="none" stroke="#010101" stroke-width="4" stroke-miterlimit="10" d="M669.783,388.36c-3.896,0-7.07,3.172-7.07,7.072
			v39.789c0,3.901,3.174,7.072,7.07,7.072h39.794c3.899,0,7.073-3.171,7.073-7.072v-39.789c0-3.9-3.174-7.072-7.073-7.072H669.783z"
			/>
		<g>
			<path fill="#010101" d="M690.842,411.022c-0.068,0.181-0.112,0.368-0.131,0.559c-0.021,0.209-0.016,0.419,0.023,0.628
				c0.022,0.125,0.053,0.249,0.098,0.372c0.207,0.562,0.623,1.01,1.168,1.261c0.297,0.136,0.612,0.205,0.936,0.205
				c0.403,0,0.789-0.112,1.125-0.31c0.184-0.105,0.352-0.236,0.496-0.39c0.133-0.137,0.246-0.292,0.34-0.462
				c0.027-0.049,0.058-0.097,0.082-0.147c0,0,4.482-9.75,4.49-9.77c0.01-0.021,0.135-0.394,0.162-0.544
				c0.176-0.982-0.316-2-1.264-2.435c-0.297-0.137-0.612-0.206-0.938-0.206c-0.682,0-1.317,0.315-1.738,0.83
				c-0.119,0.146-0.223,0.304-0.303,0.479c0-0.001,0-0.003,0-0.004l-0.002,0.005v0.002l-4.49,9.767
				C690.873,410.914,690.861,410.97,690.842,411.022z"/>
			<path fill="#010101" d="M692.863,400.287c0.096,0.096,0.156,0.221,0.202,0.357c0.105,0.323,0.089,0.736,0,1.157
				c-0.046,0.214-0.106,0.426-0.179,0.626c-0.027,0.078-0.057,0.155-0.085,0.229c-0.047,0.111-0.106,0.239-0.177,0.377
				c-0.607,1.203-2.174,3.227-5.852,3.352c-0.002,0-0.004,0.001-0.006,0.001l-1.531,3.189c0.957,0.226,2.66,0.761,4.137,1.912
				l4.994-10.864c0.082-0.178,0.129-0.36,0.161-0.544c0.175-0.982-0.316-2-1.264-2.437c-0.298-0.136-0.613-0.205-0.937-0.205
				c-0.684,0-1.318,0.315-1.738,0.83c-0.12,0.146-0.225,0.305-0.307,0.479c0.002-0.001,0.002-0.002,0.004-0.005l-0.004,0.005v0.003
				l-0.632,1.372h3.047L692.863,400.287z"/>
			<path fill="#010101" d="M686.951,400.123h0.547h0.918l0.844-1.84c0.082-0.177,0.129-0.359,0.162-0.544
				c0.175-0.983-0.318-2-1.266-2.435c-0.297-0.137-0.611-0.207-0.936-0.207c-0.684,0-1.317,0.316-1.738,0.831
				c-0.119,0.146-0.225,0.303-0.305,0.479c-0.001,0-0.001,0.001-0.001,0.003l-1.705,3.712h1.866H686.951L686.951,400.123z"/>
			<polygon fill="#010101" points="689.264,398.278 689.266,398.275 689.264,398.278 689.262,398.282 			"/>
			<polygon fill="#010101" points="698.963,406.765 698.963,406.765 698.963,406.765 			"/>
			<polygon fill="#010101" points="694.674,413.403 694.674,413.402 694.674,413.402 			"/>
			<polygon fill="#010101" points="694.676,413.398 694.674,413.4 694.674,413.401 			"/>
			<path fill="#010101" d="M702.856,408.559c0-0.252-0.14-0.774-0.146-0.779c-0.317-0.855-1.135-1.467-2.101-1.467
				c-0.202,0-0.396,0.035-0.583,0.085c-0.324,0.087-0.619,0.245-0.867,0.457c-0.293,0.251-0.52,0.568-0.653,0.938
				c-0.001,0.004-0.002,0.01-0.005,0.016l-2.807,6.063l0,0c-0.084,0.18-0.125,0.369-0.135,0.557c-0.002,0.067,0,0.133,0.005,0.198
				c0.044,0.528,0.36,1.019,0.874,1.256c0.244,0.112,0.508,0.146,0.766,0.12c0.334-0.036,0.657-0.175,0.904-0.404
				c0.121-0.108,0.219-0.241,0.298-0.388l1.458-3.15l1.02,0.472l0.102-0.22l-1.514,3.293l-0.002,0.005
				c-0.026,0.054-0.057,0.104-0.086,0.156c-0.063,0.112-0.133,0.222-0.209,0.322c-0.159,0.209-0.349,0.392-0.559,0.544
				c-0.406,0.295-0.896,0.479-1.412,0.504c-0.046,0.003-0.089,0.009-0.135,0.009l0,0c-0.381,0-0.752-0.082-1.1-0.242
				c-0.523-0.24-0.924-0.633-1.188-1.1c-0.129-0.226-0.218-0.469-0.274-0.721c-0.022-0.094-0.038-0.189-0.05-0.285
				c-0.174,0.089-0.354,0.166-0.541,0.225c-0.314,0.095-0.645,0.147-0.98,0.147l0,0c-0.391,0-0.652-0.068-1.017-0.199
				c0.207,0.678,0.337,1.428,0.337,2.277v4.259h-1.123v-4.259c0-1.019-0.32-1.883-0.646-2.619c-1.534-3.457-5.918-4.056-6.143-4.083
				l-0.774-0.097l2.488-5.181h0.353c0.094,0,0.174-0.011,0.265-0.013c0.217-0.008,0.434-0.013,0.634-0.035
				c2.143-0.222,3.318-1.221,3.939-2.077c0.053-0.073,0.102-0.147,0.148-0.222c0.109-0.172,0.201-0.341,0.279-0.505
				c0.089-0.187,0.158-0.366,0.209-0.531c0.08-0.253,0.121-0.476,0.133-0.637h-9.295c-1.113,0-2.085,0.59-2.629,1.471
				c-0.128,0.206-0.232,0.428-0.309,0.663l-2.92,6.262l-0.15,0.322c-0.144,0.357-0.225,0.746-0.225,1.154
				c0,0.56,0.15,1.083,0.409,1.535l0.315,0.454l7.177,9.502v12.938h13.483v0.001H699V426l3.569-7.264
				c0.05-0.09,0.099-0.181,0.136-0.278c0.094-0.239,0.148-0.499,0.154-0.772C702.857,417.673,702.856,408.559,702.856,408.559z"/>
		</g>
	</g>
</g>
</svg>
